# MagicaVoxel @ Ephtracy

# material
mtllib cube_concrete.mtl
usemtl palette

# normals
vn -1 0 0
vn 1 0 0
vn 0 0 1
vn 0 0 -1
vn 0 -1 0
vn 0 1 0

# texcoords
vt 0.751953 0.5
vt 0.974609 0.5
vt 0.978516 0.5
vt 0.982422 0.5
vt 0.986328 0.5
vt 0.990234 0.5
vt 0.994141 0.5

# verts
v -9 0 5
v -9 0 4
v -9 0 2
v -9 0 1
v -9 0 -1
v -9 0 -2
v -9 0 -4
v -9 0 -5
v -9 1 3
v -9 1 2
v -9 1 1
v -9 2 2
v -9 2 1
v -9 2 -4
v -9 2 -5
v -9 3 3
v -9 3 2
v -9 3 -4
v -9 3 -5
v -9 4 5
v -9 4 4
v -9 4 2
v -9 4 1
v -9 4 -1
v -9 4 -2
v -9 4 -3
v -9 5 2
v -9 5 1
v -9 5 -0
v -9 6 5
v -9 6 4
v -9 6 1
v -9 6 -0
v -9 7 4
v -9 7 3
v -9 7 -1
v -9 7 -2
v -9 7 -3
v -9 7 -4
v -9 7 -5
v -9 8 4
v -9 8 3
v -9 8 -2
v -9 8 -3
v -9 8 -4
v -9 8 -5
v -9 9 -4
v -9 9 -5
v -9 10 5
v -9 10 4
v -9 10 2
v -9 10 1
v -9 10 -1
v -9 10 -2
v -9 10 -4
v -9 10 -5
v 1 0 5
v 1 0 4
v 1 0 2
v 1 0 1
v 1 0 -1
v 1 0 -2
v 1 0 -4
v 1 0 -5
v 1 1 -2
v 1 1 -3
v 1 2 2
v 1 2 1
v 1 2 -4
v 1 2 -5
v 1 3 5
v 1 3 4
v 1 3 3
v 1 3 2
v 1 3 1
v 1 3 -2
v 1 3 -3
v 1 3 -4
v 1 3 -5
v 1 4 3
v 1 4 2
v 1 4 1
v 1 4 -3
v 1 4 -4
v 1 5 5
v 1 5 4
v 1 5 3
v 1 5 -4
v 1 5 -5
v 1 6 4
v 1 6 3
v 1 6 1
v 1 6 -0
v 1 6 -1
v 1 6 -2
v 1 6 -4
v 1 6 -5
v 1 7 2
v 1 7 1
v 1 7 -0
v 1 7 -1
v 1 7 -2
v 1 7 -4
v 1 7 -5
v 1 8 5
v 1 8 4
v 1 8 2
v 1 8 1
v 1 8 -4
v 1 8 -5
v 1 9 5
v 1 9 4
v 1 10 5
v 1 10 4
v 1 10 2
v 1 10 1
v 1 10 -1
v 1 10 -2
v 1 10 -4
v 1 10 -5
v -9 0 5
v -9 4 5
v -9 6 5
v -9 10 5
v -8 0 5
v -8 4 5
v -8 5 5
v -8 6 5
v -8 10 5
v -7 4 5
v -7 5 5
v -7 8 5
v -7 9 5
v -6 0 5
v -6 6 5
v -6 7 5
v -6 8 5
v -6 9 5
v -6 10 5
v -5 0 5
v -5 6 5
v -5 7 5
v -5 8 5
v -5 9 5
v -5 10 5
v -4 7 5
v -4 8 5
v -3 0 5
v -3 1 5
v -3 2 5
v -3 7 5
v -3 8 5
v -3 10 5
v -2 0 5
v -2 1 5
v -2 2 5
v -2 10 5
v -1 4 5
v -1 5 5
v 0 0 5
v 0 3 5
v 0 4 5
v 0 5 5
v 0 8 5
v 0 9 5
v 0 10 5
v 1 0 5
v 1 3 5
v 1 5 5
v 1 8 5
v 1 9 5
v 1 10 5
v -9 0 -5
v -9 2 -5
v -9 3 -5
v -9 7 -5
v -9 8 -5
v -9 9 -5
v -9 10 -5
v -8 0 -5
v -8 2 -5
v -8 3 -5
v -8 4 -5
v -8 6 -5
v -8 7 -5
v -8 8 -5
v -8 9 -5
v -8 10 -5
v -7 4 -5
v -7 6 -5
v -6 0 -5
v -6 8 -5
v -6 9 -5
v -6 10 -5
v -5 0 -5
v -5 3 -5
v -5 4 -5
v -5 5 -5
v -5 6 -5
v -5 8 -5
v -5 9 -5
v -5 10 -5
v -4 3 -5
v -4 4 -5
v -4 5 -5
v -4 6 -5
v -4 7 -5
v -3 0 -5
v -3 2 -5
v -3 3 -5
v -3 6 -5
v -3 7 -5
v -3 8 -5
v -3 9 -5
v -3 10 -5
v -2 0 -5
v -2 2 -5
v -2 3 -5
v -2 5 -5
v -2 7 -5
v -2 8 -5
v -2 9 -5
v -2 10 -5
v -1 2 -5
v -1 3 -5
v -1 5 -5
v -1 7 -5
v 0 0 -5
v 0 2 -5
v 0 3 -5
v 0 5 -5
v 0 6 -5
v 0 7 -5
v 0 8 -5
v 0 10 -5
v 1 0 -5
v 1 2 -5
v 1 3 -5
v 1 5 -5
v 1 6 -5
v 1 7 -5
v 1 8 -5
v 1 10 -5
v -9 0 5
v -8 0 5
v -6 0 5
v -5 0 5
v -3 0 5
v -2 0 5
v 0 0 5
v 1 0 5
v -9 0 4
v -8 0 4
v -6 0 4
v -5 0 4
v -3 0 4
v -2 0 4
v 0 0 4
v 1 0 4
v -9 0 2
v -8 0 2
v 0 0 2
v 1 0 2
v -9 0 1
v -8 0 1
v 0 0 1
v 1 0 1
v -9 0 -1
v -8 0 -1
v 0 0 -1
v 1 0 -1
v -9 0 -2
v -8 0 -2
v 0 0 -2
v 1 0 -2
v -9 0 -4
v -8 0 -4
v -6 0 -4
v -5 0 -4
v -3 0 -4
v -2 0 -4
v 0 0 -4
v 1 0 -4
v -9 0 -5
v -8 0 -5
v -6 0 -5
v -5 0 -5
v -3 0 -5
v -2 0 -5
v 0 0 -5
v 1 0 -5
v -9 10 5
v -8 10 5
v -6 10 5
v -5 10 5
v -3 10 5
v -2 10 5
v 0 10 5
v 1 10 5
v -9 10 4
v -8 10 4
v -7 10 4
v -1 10 4
v 0 10 4
v 1 10 4
v -8 10 3
v -7 10 3
v -6 10 3
v -5 10 3
v -3 10 3
v -2 10 3
v -1 10 3
v 0 10 3
v -9 10 2
v -8 10 2
v -7 10 2
v -6 10 2
v -5 10 2
v -3 10 2
v -2 10 2
v -1 10 2
v 0 10 2
v 1 10 2
v -9 10 1
v -8 10 1
v -7 10 1
v -6 10 1
v -5 10 1
v -3 10 1
v -2 10 1
v -1 10 1
v 0 10 1
v 1 10 1
v -9 10 -1
v -8 10 -1
v -7 10 -1
v -6 10 -1
v -5 10 -1
v -3 10 -1
v -2 10 -1
v -1 10 -1
v 0 10 -1
v 1 10 -1
v -9 10 -2
v -8 10 -2
v -7 10 -2
v -6 10 -2
v -5 10 -2
v -3 10 -2
v -2 10 -2
v -1 10 -2
v 0 10 -2
v 1 10 -2
v -8 10 -3
v -7 10 -3
v -6 10 -3
v -5 10 -3
v -3 10 -3
v -2 10 -3
v -1 10 -3
v 0 10 -3
v -9 10 -4
v -8 10 -4
v -7 10 -4
v -6 10 -4
v -5 10 -4
v -3 10 -4
v -2 10 -4
v -1 10 -4
v 0 10 -4
v 1 10 -4
v -9 10 -5
v -8 10 -5
v -6 10 -5
v -5 10 -5
v -3 10 -5
v -2 10 -5
v 0 10 -5
v 1 10 -5

# faces
f 9/3/1 3/3/1 2/3/1
f 10/7/1 4/7/1 3/7/1
f 10/3/1 3/3/1 9/3/1
f 11/3/1 5/3/1 4/3/1
f 11/7/1 4/7/1 10/7/1
f 12/2/1 10/2/1 9/2/1
f 12/2/1 11/2/1 10/2/1
f 13/3/1 5/3/1 11/3/1
f 13/2/1 11/2/1 12/2/1
f 14/7/1 8/7/1 7/7/1
f 14/3/1 7/3/1 6/3/1
f 15/7/1 8/7/1 14/7/1
f 16/3/1 9/3/1 2/3/1
f 16/2/1 12/2/1 9/2/1
f 17/7/1 13/7/1 12/7/1
f 17/2/1 12/2/1 16/2/1
f 18/6/1 15/6/1 14/6/1
f 18/3/1 14/3/1 6/3/1
f 19/6/1 15/6/1 18/6/1
f 20/6/1 2/6/1 1/6/1
f 21/3/1 16/3/1 2/3/1
f 21/6/1 2/6/1 20/6/1
f 21/3/1 17/3/1 16/3/1
f 22/7/1 13/7/1 17/7/1
f 22/3/1 17/3/1 21/3/1
f 23/3/1 5/3/1 13/3/1
f 23/7/1 13/7/1 22/7/1
f 24/7/1 6/7/1 5/7/1
f 24/3/1 5/3/1 23/3/1
f 25/3/1 18/3/1 6/3/1
f 25/7/1 6/7/1 24/7/1
f 26/3/1 18/3/1 25/3/1
f 27/3/1 22/3/1 21/3/1
f 27/6/1 23/6/1 22/6/1
f 28/3/1 24/3/1 23/3/1
f 28/6/1 23/6/1 27/6/1
f 29/3/1 24/3/1 28/3/1
f 30/7/1 21/7/1 20/7/1
f 31/3/1 27/3/1 21/3/1
f 31/7/1 21/7/1 30/7/1
f 32/7/1 28/7/1 27/7/1
f 32/2/1 29/2/1 28/2/1
f 33/3/1 24/3/1 29/3/1
f 33/2/1 29/2/1 32/2/1
f 34/3/1 27/3/1 31/3/1
f 34/6/1 31/6/1 30/6/1
f 35/3/1 27/3/1 34/3/1
f 36/6/1 25/6/1 24/6/1
f 36/3/1 24/3/1 33/3/1
f 36/3/1 33/3/1 32/3/1
f 37/2/1 26/2/1 25/2/1
f 37/6/1 25/6/1 36/6/1
f 38/3/1 18/3/1 26/3/1
f 38/2/1 26/2/1 37/2/1
f 39/7/1 19/7/1 18/7/1
f 39/3/1 18/3/1 38/3/1
f 40/7/1 19/7/1 39/7/1
f 41/2/1 35/2/1 34/2/1
f 41/6/1 34/6/1 30/6/1
f 42/3/1 27/3/1 35/3/1
f 42/2/1 35/2/1 41/2/1
f 43/7/1 37/7/1 36/7/1
f 43/2/1 38/2/1 37/2/1
f 44/6/1 39/6/1 38/6/1
f 44/2/1 38/2/1 43/2/1
f 45/2/1 40/2/1 39/2/1
f 45/6/1 39/6/1 44/6/1
f 46/2/1 40/2/1 45/2/1
f 47/3/1 44/3/1 43/3/1
f 47/3/1 45/3/1 44/3/1
f 47/7/1 46/7/1 45/7/1
f 48/7/1 46/7/1 47/7/1
f 49/6/1 41/6/1 30/6/1
f 50/3/1 42/3/1 41/3/1
f 50/6/1 41/6/1 49/6/1
f 51/3/1 27/3/1 42/3/1
f 51/3/1 42/3/1 50/3/1
f 51/7/1 32/7/1 27/7/1
f 52/3/1 36/3/1 32/3/1
f 52/7/1 32/7/1 51/7/1
f 53/7/1 43/7/1 36/7/1
f 53/3/1 36/3/1 52/3/1
f 54/3/1 47/3/1 43/3/1
f 54/7/1 43/7/1 53/7/1
f 55/6/1 48/6/1 47/6/1
f 55/3/1 47/3/1 54/3/1
f 56/6/1 48/6/1 55/6/1
f 61/7/2 62/7/2 65/7/2
f 62/3/2 63/3/2 65/3/2
f 65/3/2 63/3/2 66/3/2
f 58/3/2 59/3/2 67/3/2
f 59/6/2 60/6/2 67/6/2
f 60/3/2 61/3/2 68/3/2
f 67/6/2 60/6/2 68/6/2
f 66/3/2 63/3/2 69/3/2
f 63/7/2 64/7/2 69/7/2
f 69/7/2 64/7/2 70/7/2
f 57/6/2 58/6/2 71/6/2
f 58/3/2 67/3/2 72/3/2
f 71/6/2 58/6/2 72/6/2
f 72/3/2 67/3/2 73/3/2
f 67/5/2 68/5/2 74/5/2
f 73/3/2 67/3/2 74/3/2
f 68/3/2 61/3/2 75/3/2
f 74/5/2 68/5/2 75/5/2
f 65/2/2 66/2/2 76/2/2
f 61/7/2 65/7/2 76/7/2
f 66/3/2 69/3/2 77/3/2
f 76/2/2 66/2/2 77/2/2
f 69/6/2 70/6/2 78/6/2
f 77/3/2 69/3/2 78/3/2
f 78/6/2 70/6/2 79/6/2
f 73/4/2 74/4/2 80/4/2
f 72/3/2 73/3/2 80/3/2
f 74/6/2 75/6/2 81/6/2
f 80/4/2 74/4/2 81/4/2
f 75/3/2 61/3/2 82/3/2
f 81/6/2 75/6/2 82/6/2
f 76/3/2 77/3/2 83/3/2
f 77/2/2 78/2/2 83/2/2
f 78/7/2 79/7/2 84/7/2
f 83/2/2 78/2/2 84/2/2
f 71/7/2 72/7/2 85/7/2
f 80/3/2 81/3/2 86/3/2
f 85/7/2 72/7/2 86/7/2
f 72/3/2 80/3/2 86/3/2
f 86/3/2 81/3/2 87/3/2
f 83/3/2 84/3/2 88/3/2
f 84/7/2 79/7/2 88/7/2
f 88/7/2 79/7/2 89/7/2
f 86/5/2 87/5/2 90/5/2
f 85/6/2 86/6/2 90/6/2
f 87/3/2 81/3/2 91/3/2
f 90/5/2 87/5/2 91/5/2
f 82/3/2 61/3/2 92/3/2
f 81/7/2 82/7/2 92/7/2
f 92/3/2 61/3/2 93/3/2
f 61/7/2 76/7/2 94/7/2
f 93/3/2 61/3/2 94/3/2
f 76/3/2 83/3/2 95/3/2
f 94/7/2 76/7/2 95/7/2
f 83/3/2 88/3/2 95/3/2
f 88/5/2 89/5/2 96/5/2
f 95/3/2 88/3/2 96/3/2
f 96/5/2 89/5/2 97/5/2
f 91/3/2 81/3/2 98/3/2
f 90/3/2 91/3/2 98/3/2
f 81/7/2 92/7/2 98/7/2
f 92/2/2 93/2/2 99/2/2
f 98/7/2 92/7/2 99/7/2
f 93/3/2 94/3/2 100/3/2
f 99/2/2 93/2/2 100/2/2
f 94/6/2 95/6/2 101/6/2
f 100/3/2 94/3/2 101/3/2
f 95/3/2 96/3/2 102/3/2
f 101/6/2 95/6/2 102/6/2
f 96/7/2 97/7/2 103/7/2
f 102/3/2 96/3/2 103/3/2
f 103/7/2 97/7/2 104/7/2
f 85/6/2 90/6/2 105/6/2
f 90/3/2 98/3/2 106/3/2
f 105/6/2 90/6/2 106/6/2
f 98/6/2 99/6/2 107/6/2
f 106/3/2 98/3/2 107/3/2
f 99/3/2 100/3/2 108/3/2
f 107/6/2 99/6/2 108/6/2
f 100/3/2 101/3/2 108/3/2
f 103/6/2 104/6/2 109/6/2
f 102/3/2 103/3/2 109/3/2
f 109/6/2 104/6/2 110/6/2
f 105/7/2 106/7/2 111/7/2
f 106/3/2 107/3/2 112/3/2
f 111/7/2 106/7/2 112/7/2
f 111/6/2 112/6/2 113/6/2
f 112/3/2 107/3/2 114/3/2
f 113/6/2 112/6/2 114/6/2
f 107/7/2 108/7/2 115/7/2
f 114/3/2 107/3/2 115/3/2
f 108/3/2 101/3/2 116/3/2
f 115/7/2 108/7/2 116/7/2
f 101/7/2 102/7/2 117/7/2
f 116/3/2 101/3/2 117/3/2
f 102/3/2 109/3/2 118/3/2
f 117/7/2 102/7/2 118/7/2
f 109/7/2 110/7/2 119/7/2
f 118/3/2 109/3/2 119/3/2
f 119/7/2 110/7/2 120/7/2
f 125/6/3 122/6/3 121/6/3
f 126/7/3 123/7/3 122/7/3
f 126/6/3 122/6/3 125/6/3
f 127/7/3 123/7/3 126/7/3
f 128/6/3 124/6/3 123/6/3
f 128/7/3 123/7/3 127/7/3
f 129/6/3 124/6/3 128/6/3
f 130/2/3 127/2/3 126/2/3
f 130/3/3 126/3/3 125/3/3
f 131/3/3 129/3/3 128/3/3
f 131/2/3 127/2/3 130/2/3
f 131/3/3 128/3/3 127/3/3
f 132/3/3 129/3/3 131/3/3
f 133/3/3 129/3/3 132/3/3
f 134/3/3 130/3/3 125/3/3
f 134/3/3 131/3/3 130/3/3
f 134/3/3 132/3/3 131/3/3
f 135/3/3 132/3/3 134/3/3
f 136/3/3 132/3/3 135/3/3
f 137/4/3 133/4/3 132/4/3
f 137/3/3 132/3/3 136/3/3
f 138/3/3 129/3/3 133/3/3
f 138/4/3 133/4/3 137/4/3
f 139/3/3 129/3/3 138/3/3
f 140/6/3 135/6/3 134/6/3
f 141/7/3 136/7/3 135/7/3
f 141/6/3 135/6/3 140/6/3
f 142/6/3 137/6/3 136/6/3
f 142/7/3 136/7/3 141/7/3
f 143/7/3 138/7/3 137/7/3
f 143/6/3 137/6/3 142/6/3
f 144/6/3 139/6/3 138/6/3
f 144/7/3 138/7/3 143/7/3
f 145/6/3 139/6/3 144/6/3
f 146/3/3 141/3/3 140/3/3
f 146/3/3 142/3/3 141/3/3
f 146/3/3 145/3/3 144/3/3
f 146/3/3 144/3/3 143/3/3
f 146/3/3 143/3/3 142/3/3
f 147/3/3 145/3/3 146/3/3
f 148/3/3 146/3/3 140/3/3
f 149/3/3 146/3/3 148/3/3
f 150/3/3 146/3/3 149/3/3
f 151/2/3 147/2/3 146/2/3
f 151/3/3 146/3/3 150/3/3
f 152/3/3 145/3/3 147/3/3
f 152/2/3 147/2/3 151/2/3
f 153/3/3 145/3/3 152/3/3
f 154/6/3 149/6/3 148/6/3
f 155/5/3 150/5/3 149/5/3
f 155/6/3 149/6/3 154/6/3
f 156/6/3 151/6/3 150/6/3
f 156/5/3 150/5/3 155/5/3
f 156/6/3 152/6/3 151/6/3
f 156/6/3 153/6/3 152/6/3
f 157/6/3 153/6/3 156/6/3
f 158/3/3 155/3/3 154/3/3
f 158/3/3 156/3/3 155/3/3
f 158/3/3 157/3/3 156/3/3
f 159/3/3 157/3/3 158/3/3
f 160/3/3 158/3/3 154/3/3
f 161/3/3 158/3/3 160/3/3
f 162/4/3 159/4/3 158/4/3
f 162/3/3 158/3/3 161/3/3
f 163/3/3 157/3/3 159/3/3
f 163/4/3 159/4/3 162/4/3
f 164/3/3 157/3/3 163/3/3
f 165/3/3 157/3/3 164/3/3
f 166/3/3 157/3/3 165/3/3
f 167/6/3 161/6/3 160/6/3
f 168/7/3 162/7/3 161/7/3
f 168/6/3 161/6/3 167/6/3
f 168/7/3 163/7/3 162/7/3
f 169/6/3 164/6/3 163/6/3
f 169/7/3 163/7/3 168/7/3
f 170/7/3 165/7/3 164/7/3
f 170/6/3 164/6/3 169/6/3
f 171/6/3 166/6/3 165/6/3
f 171/7/3 165/7/3 170/7/3
f 172/6/3 166/6/3 171/6/3
f 173/7/4 174/7/4 180/7/4
f 174/6/4 175/6/4 181/6/4
f 180/7/4 174/7/4 181/7/4
f 175/7/4 176/7/4 182/7/4
f 181/6/4 175/6/4 182/6/4
f 182/7/4 176/7/4 183/7/4
f 183/7/4 176/7/4 184/7/4
f 176/2/4 177/2/4 185/2/4
f 184/7/4 176/7/4 185/7/4
f 177/7/4 178/7/4 186/7/4
f 185/2/4 177/2/4 186/2/4
f 178/6/4 179/6/4 187/6/4
f 186/7/4 178/7/4 187/7/4
f 187/6/4 179/6/4 188/6/4
f 180/3/4 181/3/4 189/3/4
f 183/5/4 184/5/4 189/5/4
f 181/3/4 182/3/4 189/3/4
f 182/3/4 183/3/4 189/3/4
f 185/3/4 186/3/4 190/3/4
f 189/5/4 184/5/4 190/5/4
f 187/3/4 188/3/4 190/3/4
f 186/3/4 187/3/4 190/3/4
f 184/3/4 185/3/4 190/3/4
f 180/3/4 189/3/4 191/3/4
f 189/3/4 190/3/4 191/3/4
f 190/3/4 188/3/4 192/3/4
f 191/3/4 190/3/4 192/3/4
f 192/3/4 188/3/4 193/3/4
f 193/3/4 188/3/4 194/3/4
f 191/7/4 192/7/4 195/7/4
f 195/7/4 192/7/4 196/7/4
f 196/7/4 192/7/4 197/7/4
f 197/7/4 192/7/4 198/7/4
f 198/7/4 192/7/4 199/7/4
f 192/6/4 193/6/4 200/6/4
f 199/7/4 192/7/4 200/7/4
f 193/7/4 194/7/4 201/7/4
f 200/6/4 193/6/4 201/6/4
f 201/7/4 194/7/4 202/7/4
f 195/3/4 196/3/4 203/3/4
f 196/5/4 197/5/4 203/5/4
f 197/6/4 198/6/4 204/6/4
f 203/5/4 197/5/4 204/5/4
f 198/2/4 199/2/4 205/2/4
f 204/6/4 198/6/4 205/6/4
f 199/3/4 200/3/4 206/3/4
f 205/2/4 199/2/4 206/2/4
f 201/3/4 202/3/4 206/3/4
f 200/3/4 201/3/4 206/3/4
f 206/3/4 202/3/4 207/3/4
f 203/3/4 204/3/4 208/3/4
f 204/3/4 205/3/4 208/3/4
f 195/3/4 203/3/4 208/3/4
f 205/3/4 206/3/4 208/3/4
f 208/3/4 206/3/4 209/3/4
f 209/3/4 206/3/4 210/3/4
f 206/5/4 207/5/4 211/5/4
f 210/3/4 206/3/4 211/3/4
f 207/3/4 202/3/4 212/3/4
f 211/5/4 207/5/4 212/5/4
f 212/3/4 202/3/4 213/3/4
f 213/3/4 202/3/4 214/3/4
f 214/3/4 202/3/4 215/3/4
f 208/7/4 209/7/4 216/7/4
f 209/6/4 210/6/4 217/6/4
f 216/7/4 209/7/4 217/7/4
f 210/7/4 211/7/4 218/7/4
f 217/6/4 210/6/4 218/6/4
f 211/7/4 212/7/4 218/7/4
f 212/7/4 213/7/4 218/7/4
f 218/7/4 213/7/4 219/7/4
f 219/7/4 213/7/4 220/7/4
f 213/6/4 214/6/4 221/6/4
f 220/7/4 213/7/4 221/7/4
f 214/7/4 215/7/4 222/7/4
f 221/6/4 214/6/4 222/6/4
f 222/7/4 215/7/4 223/7/4
f 216/3/4 217/3/4 224/3/4
f 217/4/4 218/4/4 224/4/4
f 218/3/4 219/3/4 225/3/4
f 224/4/4 218/4/4 225/4/4
f 219/2/4 220/2/4 226/2/4
f 225/3/4 219/3/4 226/3/4
f 220/3/4 221/3/4 227/3/4
f 226/2/4 220/2/4 227/2/4
f 222/3/4 223/3/4 227/3/4
f 221/3/4 222/3/4 227/3/4
f 225/3/4 226/3/4 228/3/4
f 224/3/4 225/3/4 228/3/4
f 226/3/4 227/3/4 228/3/4
f 216/3/4 224/3/4 228/3/4
f 228/3/4 227/3/4 229/3/4
f 229/3/4 227/3/4 230/3/4
f 230/3/4 227/3/4 231/3/4
f 231/3/4 227/3/4 232/3/4
f 227/3/4 223/3/4 233/3/4
f 232/3/4 227/3/4 233/3/4
f 233/3/4 223/3/4 234/3/4
f 234/3/4 223/3/4 235/3/4
f 228/7/4 229/7/4 236/7/4
f 229/6/4 230/6/4 237/6/4
f 236/7/4 229/7/4 237/7/4
f 230/7/4 231/7/4 238/7/4
f 237/6/4 230/6/4 238/6/4
f 231/5/4 232/5/4 239/5/4
f 238/7/4 231/7/4 239/7/4
f 232/7/4 233/7/4 240/7/4
f 239/5/4 232/5/4 240/5/4
f 233/6/4 234/6/4 241/6/4
f 240/7/4 233/7/4 241/7/4
f 234/7/4 235/7/4 242/7/4
f 241/6/4 234/6/4 242/6/4
f 242/7/4 235/7/4 243/7/4
f 252/6/5 245/6/5 244/6/5
f 253/3/5 246/3/5 245/3/5
f 253/6/5 245/6/5 252/6/5
f 254/6/5 247/6/5 246/6/5
f 254/3/5 246/3/5 253/3/5
f 255/3/5 248/3/5 247/3/5
f 255/6/5 247/6/5 254/6/5
f 256/6/5 249/6/5 248/6/5
f 256/3/5 248/3/5 255/3/5
f 257/3/5 250/3/5 249/3/5
f 257/6/5 249/6/5 256/6/5
f 258/6/5 251/6/5 250/6/5
f 258/3/5 250/3/5 257/3/5
f 259/6/5 251/6/5 258/6/5
f 260/3/5 257/3/5 256/3/5
f 260/3/5 253/3/5 252/3/5
f 260/3/5 259/3/5 258/3/5
f 260/3/5 258/3/5 257/3/5
f 260/3/5 256/3/5 255/3/5
f 260/3/5 255/3/5 254/3/5
f 260/3/5 254/3/5 253/3/5
f 261/3/5 259/3/5 260/3/5
f 262/3/5 259/3/5 261/3/5
f 263/3/5 259/3/5 262/3/5
f 264/7/5 261/7/5 260/7/5
f 265/3/5 262/3/5 261/3/5
f 265/7/5 261/7/5 264/7/5
f 266/6/5 263/6/5 262/6/5
f 266/3/5 262/3/5 265/3/5
f 267/6/5 263/6/5 266/6/5
f 268/3/5 265/3/5 264/3/5
f 268/3/5 266/3/5 265/3/5
f 268/3/5 267/3/5 266/3/5
f 269/3/5 267/3/5 268/3/5
f 270/3/5 267/3/5 269/3/5
f 271/3/5 267/3/5 270/3/5
f 272/7/5 269/7/5 268/7/5
f 273/3/5 270/3/5 269/3/5
f 273/7/5 269/7/5 272/7/5
f 274/7/5 271/7/5 270/7/5
f 274/3/5 270/3/5 273/3/5
f 275/7/5 271/7/5 274/7/5
f 276/3/5 273/3/5 272/3/5
f 276/3/5 274/3/5 273/3/5
f 276/3/5 275/3/5 274/3/5
f 277/3/5 275/3/5 276/3/5
f 278/3/5 275/3/5 277/3/5
f 279/3/5 275/3/5 278/3/5
f 280/3/5 275/3/5 279/3/5
f 281/3/5 275/3/5 280/3/5
f 282/3/5 275/3/5 281/3/5
f 283/3/5 275/3/5 282/3/5
f 284/7/5 277/7/5 276/7/5
f 285/3/5 278/3/5 277/3/5
f 285/7/5 277/7/5 284/7/5
f 286/7/5 279/7/5 278/7/5
f 286/3/5 278/3/5 285/3/5
f 287/3/5 280/3/5 279/3/5
f 287/7/5 279/7/5 286/7/5
f 288/7/5 281/7/5 280/7/5
f 288/3/5 280/3/5 287/3/5
f 289/3/5 282/3/5 281/3/5
f 289/7/5 281/7/5 288/7/5
f 290/7/5 283/7/5 282/7/5
f 290/3/5 282/3/5 289/3/5
f 291/7/5 283/7/5 290/7/5
f 292/6/6 293/6/6 300/6/6
f 293/3/6 294/3/6 301/3/6
f 300/6/6 293/6/6 301/6/6
f 301/3/6 294/3/6 302/3/6
f 297/3/6 298/3/6 303/3/6
f 298/6/6 299/6/6 304/6/6
f 303/3/6 298/3/6 304/3/6
f 304/6/6 299/6/6 305/6/6
f 300/3/6 301/3/6 306/3/6
f 301/6/6 302/6/6 306/6/6
f 302/3/6 294/3/6 307/3/6
f 306/6/6 302/6/6 307/6/6
f 294/6/6 295/6/6 308/6/6
f 307/3/6 294/3/6 308/3/6
f 295/3/6 296/3/6 309/3/6
f 308/6/6 295/6/6 309/6/6
f 296/6/6 297/6/6 310/6/6
f 309/3/6 296/3/6 310/3/6
f 297/3/6 303/3/6 311/3/6
f 310/6/6 297/6/6 311/6/6
f 303/6/6 304/6/6 312/6/6
f 311/3/6 303/3/6 312/3/6
f 304/3/6 305/3/6 313/3/6
f 312/6/6 304/6/6 313/6/6
f 306/3/6 307/3/6 314/3/6
f 300/3/6 306/3/6 314/3/6
f 314/3/6 307/3/6 315/3/6
f 307/5/6 308/5/6 316/5/6
f 315/3/6 307/3/6 316/3/6
f 308/5/6 309/5/6 316/5/6
f 316/5/6 309/5/6 317/5/6
f 309/3/6 310/3/6 318/3/6
f 317/5/6 309/5/6 318/5/6
f 311/5/6 312/5/6 319/5/6
f 318/3/6 310/3/6 319/3/6
f 310/5/6 311/5/6 319/5/6
f 319/5/6 312/5/6 320/5/6
f 312/3/6 313/3/6 321/3/6
f 320/5/6 312/5/6 321/5/6
f 313/3/6 305/3/6 322/3/6
f 321/3/6 313/3/6 322/3/6
f 322/3/6 305/3/6 323/3/6
f 314/7/6 315/7/6 324/7/6
f 315/6/6 316/6/6 325/6/6
f 324/7/6 315/7/6 325/7/6
f 316/5/6 317/5/6 326/5/6
f 325/6/6 316/6/6 326/6/6
f 317/3/6 318/3/6 327/3/6
f 326/5/6 317/5/6 327/5/6
f 318/4/6 319/4/6 328/4/6
f 327/3/6 318/3/6 328/3/6
f 319/3/6 320/3/6 329/3/6
f 328/4/6 319/4/6 329/4/6
f 320/5/6 321/5/6 330/5/6
f 329/3/6 320/3/6 330/3/6
f 321/6/6 322/6/6 331/6/6
f 330/5/6 321/5/6 331/5/6
f 322/7/6 323/7/6 332/7/6
f 331/6/6 322/6/6 332/6/6
f 332/7/6 323/7/6 333/7/6
f 324/3/6 325/3/6 334/3/6
f 325/3/6 326/3/6 334/3/6
f 326/3/6 327/3/6 334/3/6
f 334/3/6 327/3/6 335/3/6
f 335/3/6 327/3/6 336/3/6
f 327/4/6 328/4/6 337/4/6
f 336/3/6 327/3/6 337/3/6
f 328/2/6 329/2/6 338/2/6
f 337/4/6 328/4/6 338/4/6
f 329/4/6 330/4/6 339/4/6
f 338/2/6 329/2/6 339/2/6
f 332/3/6 333/3/6 340/3/6
f 339/4/6 330/4/6 340/4/6
f 331/3/6 332/3/6 340/3/6
f 330/3/6 331/3/6 340/3/6
f 340/3/6 333/3/6 341/3/6
f 341/3/6 333/3/6 342/3/6
f 342/3/6 333/3/6 343/3/6
f 334/7/6 335/7/6 344/7/6
f 335/6/6 336/6/6 345/6/6
f 344/7/6 335/7/6 345/7/6
f 336/5/6 337/5/6 346/5/6
f 345/6/6 336/6/6 346/6/6
f 337/3/6 338/3/6 347/3/6
f 346/5/6 337/5/6 347/5/6
f 338/4/6 339/4/6 348/4/6
f 347/3/6 338/3/6 348/3/6
f 339/3/6 340/3/6 349/3/6
f 348/4/6 339/4/6 349/4/6
f 340/5/6 341/5/6 350/5/6
f 349/3/6 340/3/6 350/3/6
f 341/6/6 342/6/6 351/6/6
f 350/5/6 341/5/6 351/5/6
f 342/7/6 343/7/6 352/7/6
f 351/6/6 342/6/6 352/6/6
f 352/7/6 343/7/6 353/7/6
f 344/3/6 345/3/6 354/3/6
f 345/3/6 346/3/6 354/3/6
f 346/5/6 347/5/6 355/5/6
f 354/3/6 346/3/6 355/3/6
f 347/5/6 348/5/6 355/5/6
f 355/5/6 348/5/6 356/5/6
f 348/3/6 349/3/6 357/3/6
f 356/5/6 348/5/6 357/5/6
f 349/5/6 350/5/6 358/5/6
f 357/3/6 349/3/6 358/3/6
f 350/5/6 351/5/6 358/5/6
f 358/5/6 351/5/6 359/5/6
f 352/3/6 353/3/6 360/3/6
f 359/5/6 351/5/6 360/5/6
f 351/3/6 352/3/6 360/3/6
f 360/3/6 353/3/6 361/3/6
f 344/3/6 354/3/6 362/3/6
f 354/6/6 355/6/6 363/6/6
f 362/3/6 354/3/6 363/3/6
f 355/3/6 356/3/6 364/3/6
f 363/6/6 355/6/6 364/6/6
f 356/6/6 357/6/6 365/6/6
f 364/3/6 356/3/6 365/3/6
f 357/3/6 358/3/6 366/3/6
f 365/6/6 357/6/6 366/6/6
f 358/6/6 359/6/6 367/6/6
f 366/3/6 358/3/6 367/3/6
f 359/3/6 360/3/6 368/3/6
f 367/6/6 359/6/6 368/6/6
f 360/6/6 361/6/6 369/6/6
f 368/3/6 360/3/6 369/3/6
f 361/3/6 353/3/6 370/3/6
f 369/6/6 361/6/6 370/6/6
f 370/3/6 353/3/6 371/3/6
f 362/6/6 363/6/6 372/6/6
f 364/3/6 365/3/6 373/3/6
f 372/6/6 363/6/6 373/6/6
f 363/3/6 364/3/6 373/3/6
f 365/7/6 366/7/6 374/7/6
f 373/3/6 365/3/6 374/3/6
f 366/3/6 367/3/6 375/3/6
f 374/7/6 366/7/6 375/7/6
f 367/7/6 368/7/6 376/7/6
f 375/3/6 367/3/6 376/3/6
f 368/3/6 369/3/6 377/3/6
f 376/7/6 368/7/6 377/7/6
f 369/3/6 370/3/6 377/3/6
f 370/7/6 371/7/6 378/7/6
f 377/3/6 370/3/6 378/3/6
f 378/7/6 371/7/6 379/7/6
