# MagicaVoxel @ Ephtracy

# material
mtllib cube_concrete_border.mtl
usemtl palette

# normals
vn -1 0 0
vn 1 0 0
vn 0 0 1
vn 0 0 -1
vn 0 -1 0
vn 0 1 0

# texcoords
vt 0.751953 0.5
vt 0.958984 0.5
vt 0.962891 0.5
vt 0.966797 0.5
vt 0.974609 0.5
vt 0.978516 0.5
vt 0.982422 0.5
vt 0.986328 0.5
vt 0.990234 0.5
vt 0.994141 0.5

# verts
v -10 8 6
v -10 8 1
v -10 8 -1
v -10 8 -3
v -10 8 -4
v -10 8 -6
v -10 9 5
v -10 9 4
v -10 9 1
v -10 9 -1
v -10 9 -3
v -10 9 -4
v -10 9 -5
v -10 10 6
v -10 10 5
v -10 10 4
v -10 10 -4
v -10 10 -5
v -10 10 -6
v -9 0 5
v -9 0 4
v -9 0 2
v -9 0 1
v -9 0 -1
v -9 0 -2
v -9 0 -4
v -9 0 -5
v -9 1 3
v -9 1 2
v -9 1 1
v -9 2 2
v -9 2 1
v -9 2 -4
v -9 2 -5
v -9 3 3
v -9 3 2
v -9 3 -4
v -9 3 -5
v -9 4 5
v -9 4 4
v -9 4 2
v -9 4 1
v -9 4 -1
v -9 4 -2
v -9 4 -3
v -9 5 2
v -9 5 1
v -9 5 -0
v -9 6 5
v -9 6 4
v -9 6 1
v -9 6 -0
v -9 7 4
v -9 7 3
v -9 7 -1
v -9 7 -2
v -9 7 -3
v -9 7 -4
v -9 7 -5
v -9 8 5
v -9 8 4
v -9 8 3
v -9 8 2
v -9 8 1
v -9 8 -1
v -9 8 -2
v -9 8 -3
v -9 8 -4
v -9 8 -5
v 1 0 5
v 1 0 4
v 1 0 2
v 1 0 1
v 1 0 -1
v 1 0 -2
v 1 0 -4
v 1 0 -5
v 1 1 -2
v 1 1 -3
v 1 2 2
v 1 2 1
v 1 2 -4
v 1 2 -5
v 1 3 5
v 1 3 4
v 1 3 3
v 1 3 2
v 1 3 1
v 1 3 -2
v 1 3 -3
v 1 3 -4
v 1 3 -5
v 1 4 3
v 1 4 2
v 1 4 1
v 1 4 -3
v 1 4 -4
v 1 5 5
v 1 5 4
v 1 5 3
v 1 5 -4
v 1 5 -5
v 1 6 4
v 1 6 3
v 1 6 1
v 1 6 -0
v 1 6 -1
v 1 6 -2
v 1 6 -4
v 1 6 -5
v 1 7 2
v 1 7 1
v 1 7 -0
v 1 7 -1
v 1 7 -2
v 1 7 -4
v 1 7 -5
v 1 8 5
v 1 8 4
v 1 8 2
v 1 8 1
v 1 8 -0
v 1 8 -1
v 1 8 -2
v 1 8 -4
v 1 8 -5
v 2 8 6
v 2 8 -0
v 2 8 -1
v 2 8 -6
v 2 9 4
v 2 9 2
v 2 9 -0
v 2 9 -1
v 2 10 6
v 2 10 4
v 2 10 2
v 2 10 -6
v -10 8 6
v -10 10 6
v -7 9 6
v -7 10 6
v -6 9 6
v -6 10 6
v -4 8 6
v -4 9 6
v -2 8 6
v -2 9 6
v 2 8 6
v 2 10 6
v -9 0 5
v -9 4 5
v -9 6 5
v -9 8 5
v -8 0 5
v -8 4 5
v -8 5 5
v -8 6 5
v -8 8 5
v -7 4 5
v -7 5 5
v -6 0 5
v -6 6 5
v -6 7 5
v -6 8 5
v -5 0 5
v -5 6 5
v -5 7 5
v -5 8 5
v -4 7 5
v -4 8 5
v -3 0 5
v -3 1 5
v -3 2 5
v -3 7 5
v -3 8 5
v -2 0 5
v -2 1 5
v -2 2 5
v -2 8 5
v -1 4 5
v -1 5 5
v 0 0 5
v 0 3 5
v 0 4 5
v 0 5 5
v 0 8 5
v 1 0 5
v 1 3 5
v 1 5 5
v 1 8 5
v -9 0 -5
v -9 2 -5
v -9 3 -5
v -9 7 -5
v -9 8 -5
v -8 0 -5
v -8 2 -5
v -8 3 -5
v -8 4 -5
v -8 6 -5
v -8 7 -5
v -8 8 -5
v -7 4 -5
v -7 6 -5
v -6 0 -5
v -6 8 -5
v -5 0 -5
v -5 3 -5
v -5 4 -5
v -5 5 -5
v -5 6 -5
v -5 8 -5
v -4 3 -5
v -4 4 -5
v -4 5 -5
v -4 6 -5
v -4 7 -5
v -3 0 -5
v -3 2 -5
v -3 3 -5
v -3 6 -5
v -3 7 -5
v -3 8 -5
v -2 0 -5
v -2 2 -5
v -2 3 -5
v -2 5 -5
v -2 7 -5
v -2 8 -5
v -1 2 -5
v -1 3 -5
v -1 5 -5
v -1 7 -5
v 0 0 -5
v 0 2 -5
v 0 3 -5
v 0 5 -5
v 0 6 -5
v 0 7 -5
v 0 8 -5
v 1 0 -5
v 1 2 -5
v 1 3 -5
v 1 5 -5
v 1 6 -5
v 1 7 -5
v 1 8 -5
v -10 8 -6
v -10 10 -6
v -6 8 -6
v -6 9 -6
v -5 8 -6
v -5 9 -6
v -5 10 -6
v -3 9 -6
v -3 10 -6
v -2 9 -6
v -2 10 -6
v -1 9 -6
v -1 10 -6
v 2 8 -6
v 2 10 -6
v -9 0 5
v -8 0 5
v -6 0 5
v -5 0 5
v -3 0 5
v -2 0 5
v 0 0 5
v 1 0 5
v -9 0 4
v -8 0 4
v -6 0 4
v -5 0 4
v -3 0 4
v -2 0 4
v 0 0 4
v 1 0 4
v -9 0 2
v -8 0 2
v 0 0 2
v 1 0 2
v -9 0 1
v -8 0 1
v 0 0 1
v 1 0 1
v -9 0 -1
v -8 0 -1
v 0 0 -1
v 1 0 -1
v -9 0 -2
v -8 0 -2
v 0 0 -2
v 1 0 -2
v -9 0 -4
v -8 0 -4
v -6 0 -4
v -5 0 -4
v -3 0 -4
v -2 0 -4
v 0 0 -4
v 1 0 -4
v -9 0 -5
v -8 0 -5
v -6 0 -5
v -5 0 -5
v -3 0 -5
v -2 0 -5
v 0 0 -5
v 1 0 -5
v -10 8 6
v -4 8 6
v -2 8 6
v 2 8 6
v -9 8 5
v -8 8 5
v -6 8 5
v -5 8 5
v -4 8 5
v -3 8 5
v -2 8 5
v 0 8 5
v 1 8 5
v -9 8 4
v 1 8 4
v -9 8 3
v -9 8 2
v 1 8 2
v -10 8 1
v -9 8 1
v 1 8 1
v 1 8 -0
v 2 8 -0
v -10 8 -1
v -9 8 -1
v 1 8 -1
v 2 8 -1
v -9 8 -2
v 1 8 -2
v -10 8 -3
v -9 8 -3
v -10 8 -4
v -9 8 -4
v 1 8 -4
v -9 8 -5
v -8 8 -5
v -6 8 -5
v -5 8 -5
v -3 8 -5
v -2 8 -5
v 0 8 -5
v 1 8 -5
v -10 8 -6
v -6 8 -6
v -5 8 -6
v 2 8 -6
v -10 10 6
v -7 10 6
v -6 10 6
v 2 10 6
v -10 10 5
v -9 10 5
v -7 10 5
v -6 10 5
v -10 10 4
v -9 10 4
v -2 10 4
v 0 10 4
v 1 10 4
v 2 10 4
v -8 10 3
v -7 10 3
v -2 10 3
v 0 10 3
v -5 10 2
v -4 10 2
v 1 10 2
v 2 10 2
v -8 10 1
v -7 10 1
v -5 10 1
v -4 10 1
v -2 10 1
v -1 10 1
v -2 10 -0
v -1 10 -0
v -7 10 -2
v -5 10 -2
v -7 10 -3
v -6 10 -3
v -5 10 -3
v -3 10 -3
v -10 10 -4
v -9 10 -4
v -6 10 -4
v -3 10 -4
v -10 10 -5
v -9 10 -5
v -5 10 -5
v -3 10 -5
v -2 10 -5
v -1 10 -5
v -10 10 -6
v -5 10 -6
v -3 10 -6
v -2 10 -6
v -1 10 -6
v 2 10 -6

# faces
f 7/3/1 2/3/1 1/3/1
f 8/3/1 2/3/1 7/3/1
f 9/2/1 3/2/1 2/2/1
f 9/3/1 2/3/1 8/3/1
f 10/3/1 4/3/1 3/3/1
f 10/2/1 3/2/1 9/2/1
f 11/2/1 5/2/1 4/2/1
f 11/3/1 4/3/1 10/3/1
f 12/3/1 6/3/1 5/3/1
f 12/2/1 5/2/1 11/2/1
f 13/3/1 6/3/1 12/3/1
f 14/3/1 7/3/1 1/3/1
f 15/2/1 8/2/1 7/2/1
f 15/3/1 7/3/1 14/3/1
f 16/3/1 11/3/1 10/3/1
f 16/2/1 8/2/1 15/2/1
f 16/3/1 9/3/1 8/3/1
f 16/3/1 10/3/1 9/3/1
f 16/3/1 12/3/1 11/3/1
f 17/4/1 13/4/1 12/4/1
f 17/3/1 12/3/1 16/3/1
f 18/3/1 6/3/1 13/3/1
f 18/4/1 13/4/1 17/4/1
f 19/3/1 6/3/1 18/3/1
f 28/6/1 22/6/1 21/6/1
f 29/10/1 23/10/1 22/10/1
f 29/6/1 22/6/1 28/6/1
f 30/6/1 24/6/1 23/6/1
f 30/10/1 23/10/1 29/10/1
f 31/5/1 29/5/1 28/5/1
f 31/5/1 30/5/1 29/5/1
f 32/6/1 24/6/1 30/6/1
f 32/5/1 30/5/1 31/5/1
f 33/10/1 27/10/1 26/10/1
f 33/6/1 26/6/1 25/6/1
f 34/10/1 27/10/1 33/10/1
f 35/6/1 28/6/1 21/6/1
f 35/5/1 31/5/1 28/5/1
f 36/10/1 32/10/1 31/10/1
f 36/5/1 31/5/1 35/5/1
f 37/9/1 34/9/1 33/9/1
f 37/6/1 33/6/1 25/6/1
f 38/9/1 34/9/1 37/9/1
f 39/9/1 21/9/1 20/9/1
f 40/6/1 35/6/1 21/6/1
f 40/9/1 21/9/1 39/9/1
f 40/6/1 36/6/1 35/6/1
f 41/10/1 32/10/1 36/10/1
f 41/6/1 36/6/1 40/6/1
f 42/6/1 24/6/1 32/6/1
f 42/10/1 32/10/1 41/10/1
f 43/10/1 25/10/1 24/10/1
f 43/6/1 24/6/1 42/6/1
f 44/6/1 37/6/1 25/6/1
f 44/10/1 25/10/1 43/10/1
f 45/6/1 37/6/1 44/6/1
f 46/6/1 41/6/1 40/6/1
f 46/9/1 42/9/1 41/9/1
f 47/6/1 43/6/1 42/6/1
f 47/9/1 42/9/1 46/9/1
f 48/6/1 43/6/1 47/6/1
f 49/10/1 40/10/1 39/10/1
f 50/6/1 46/6/1 40/6/1
f 50/10/1 40/10/1 49/10/1
f 51/10/1 47/10/1 46/10/1
f 51/5/1 48/5/1 47/5/1
f 52/6/1 43/6/1 48/6/1
f 52/5/1 48/5/1 51/5/1
f 53/6/1 46/6/1 50/6/1
f 53/9/1 50/9/1 49/9/1
f 54/6/1 46/6/1 53/6/1
f 55/9/1 44/9/1 43/9/1
f 55/6/1 43/6/1 52/6/1
f 55/6/1 52/6/1 51/6/1
f 56/5/1 45/5/1 44/5/1
f 56/9/1 44/9/1 55/9/1
f 57/6/1 37/6/1 45/6/1
f 57/5/1 45/5/1 56/5/1
f 58/10/1 38/10/1 37/10/1
f 58/6/1 37/6/1 57/6/1
f 59/10/1 38/10/1 58/10/1
f 60/9/1 53/9/1 49/9/1
f 61/5/1 54/5/1 53/5/1
f 61/9/1 53/9/1 60/9/1
f 62/6/1 46/6/1 54/6/1
f 62/5/1 54/5/1 61/5/1
f 63/10/1 51/10/1 46/10/1
f 63/6/1 46/6/1 62/6/1
f 64/6/1 55/6/1 51/6/1
f 64/10/1 51/10/1 63/10/1
f 65/10/1 56/10/1 55/10/1
f 65/6/1 55/6/1 64/6/1
f 66/5/1 57/5/1 56/5/1
f 66/10/1 56/10/1 65/10/1
f 67/9/1 58/9/1 57/9/1
f 67/5/1 57/5/1 66/5/1
f 68/5/1 59/5/1 58/5/1
f 68/9/1 58/9/1 67/9/1
f 69/5/1 59/5/1 68/5/1
f 74/10/2 75/10/2 78/10/2
f 75/6/2 76/6/2 78/6/2
f 78/6/2 76/6/2 79/6/2
f 71/6/2 72/6/2 80/6/2
f 72/9/2 73/9/2 80/9/2
f 73/6/2 74/6/2 81/6/2
f 80/9/2 73/9/2 81/9/2
f 79/6/2 76/6/2 82/6/2
f 76/10/2 77/10/2 82/10/2
f 82/10/2 77/10/2 83/10/2
f 70/9/2 71/9/2 84/9/2
f 71/6/2 80/6/2 85/6/2
f 84/9/2 71/9/2 85/9/2
f 85/6/2 80/6/2 86/6/2
f 80/8/2 81/8/2 87/8/2
f 86/6/2 80/6/2 87/6/2
f 81/6/2 74/6/2 88/6/2
f 87/8/2 81/8/2 88/8/2
f 78/5/2 79/5/2 89/5/2
f 74/10/2 78/10/2 89/10/2
f 79/6/2 82/6/2 90/6/2
f 89/5/2 79/5/2 90/5/2
f 82/9/2 83/9/2 91/9/2
f 90/6/2 82/6/2 91/6/2
f 91/9/2 83/9/2 92/9/2
f 86/7/2 87/7/2 93/7/2
f 85/6/2 86/6/2 93/6/2
f 87/9/2 88/9/2 94/9/2
f 93/7/2 87/7/2 94/7/2
f 88/6/2 74/6/2 95/6/2
f 94/9/2 88/9/2 95/9/2
f 89/6/2 90/6/2 96/6/2
f 90/5/2 91/5/2 96/5/2
f 91/10/2 92/10/2 97/10/2
f 96/5/2 91/5/2 97/5/2
f 84/10/2 85/10/2 98/10/2
f 93/6/2 94/6/2 99/6/2
f 98/10/2 85/10/2 99/10/2
f 85/6/2 93/6/2 99/6/2
f 99/6/2 94/6/2 100/6/2
f 96/6/2 97/6/2 101/6/2
f 97/10/2 92/10/2 101/10/2
f 101/10/2 92/10/2 102/10/2
f 99/8/2 100/8/2 103/8/2
f 98/9/2 99/9/2 103/9/2
f 100/6/2 94/6/2 104/6/2
f 103/8/2 100/8/2 104/8/2
f 95/6/2 74/6/2 105/6/2
f 94/10/2 95/10/2 105/10/2
f 105/6/2 74/6/2 106/6/2
f 74/10/2 89/10/2 107/10/2
f 106/6/2 74/6/2 107/6/2
f 89/6/2 96/6/2 108/6/2
f 107/10/2 89/10/2 108/10/2
f 96/6/2 101/6/2 108/6/2
f 101/8/2 102/8/2 109/8/2
f 108/6/2 101/6/2 109/6/2
f 109/8/2 102/8/2 110/8/2
f 104/6/2 94/6/2 111/6/2
f 103/6/2 104/6/2 111/6/2
f 94/10/2 105/10/2 111/10/2
f 105/5/2 106/5/2 112/5/2
f 111/10/2 105/10/2 112/10/2
f 106/6/2 107/6/2 113/6/2
f 112/5/2 106/5/2 113/5/2
f 107/9/2 108/9/2 114/9/2
f 113/6/2 107/6/2 114/6/2
f 108/6/2 109/6/2 115/6/2
f 114/9/2 108/9/2 115/9/2
f 109/10/2 110/10/2 116/10/2
f 115/6/2 109/6/2 116/6/2
f 116/10/2 110/10/2 117/10/2
f 98/9/2 103/9/2 118/9/2
f 103/6/2 111/6/2 119/6/2
f 118/9/2 103/9/2 119/9/2
f 111/9/2 112/9/2 120/9/2
f 119/6/2 111/6/2 120/6/2
f 112/6/2 113/6/2 121/6/2
f 120/9/2 112/9/2 121/9/2
f 113/6/2 114/6/2 121/6/2
f 121/6/2 114/6/2 122/6/2
f 114/10/2 115/10/2 123/10/2
f 122/6/2 114/6/2 123/6/2
f 115/6/2 116/6/2 124/6/2
f 123/10/2 115/10/2 124/10/2
f 116/9/2 117/9/2 125/9/2
f 124/6/2 116/6/2 125/6/2
f 125/9/2 117/9/2 126/9/2
f 127/3/2 128/3/2 131/3/2
f 131/3/2 128/3/2 132/3/2
f 128/2/2 129/2/2 133/2/2
f 132/3/2 128/3/2 133/3/2
f 129/3/2 130/3/2 134/3/2
f 133/2/2 129/2/2 134/2/2
f 127/3/2 131/3/2 135/3/2
f 131/4/2 132/4/2 136/4/2
f 135/3/2 131/3/2 136/3/2
f 132/3/2 133/3/2 137/3/2
f 136/4/2 132/4/2 137/4/2
f 133/3/2 134/3/2 137/3/2
f 134/3/2 130/3/2 138/3/2
f 137/3/2 134/3/2 138/3/2
f 141/3/3 140/3/3 139/3/3
f 142/3/3 140/3/3 141/3/3
f 143/3/3 141/3/3 139/3/3
f 143/4/3 142/4/3 141/4/3
f 144/4/3 142/4/3 143/4/3
f 145/3/3 143/3/3 139/3/3
f 145/3/3 144/3/3 143/3/3
f 146/3/3 144/3/3 145/3/3
f 147/2/3 146/2/3 145/2/3
f 148/3/3 144/3/3 146/3/3
f 148/2/3 146/2/3 147/2/3
f 149/3/3 148/3/3 147/3/3
f 150/3/3 144/3/3 148/3/3
f 150/3/3 148/3/3 149/3/3
f 155/9/3 152/9/3 151/9/3
f 156/10/3 153/10/3 152/10/3
f 156/9/3 152/9/3 155/9/3
f 157/10/3 153/10/3 156/10/3
f 158/9/3 154/9/3 153/9/3
f 158/10/3 153/10/3 157/10/3
f 159/9/3 154/9/3 158/9/3
f 160/5/3 157/5/3 156/5/3
f 160/6/3 156/6/3 155/6/3
f 161/6/3 159/6/3 158/6/3
f 161/5/3 157/5/3 160/5/3
f 161/6/3 158/6/3 157/6/3
f 162/6/3 160/6/3 155/6/3
f 162/6/3 161/6/3 160/6/3
f 163/6/3 159/6/3 161/6/3
f 163/6/3 161/6/3 162/6/3
f 164/6/3 159/6/3 163/6/3
f 165/6/3 159/6/3 164/6/3
f 166/9/3 163/9/3 162/9/3
f 167/10/3 164/10/3 163/10/3
f 167/9/3 163/9/3 166/9/3
f 168/9/3 165/9/3 164/9/3
f 168/10/3 164/10/3 167/10/3
f 169/9/3 165/9/3 168/9/3
f 170/6/3 167/6/3 166/6/3
f 170/6/3 168/6/3 167/6/3
f 170/6/3 169/6/3 168/6/3
f 171/6/3 169/6/3 170/6/3
f 172/6/3 170/6/3 166/6/3
f 173/6/3 170/6/3 172/6/3
f 174/6/3 170/6/3 173/6/3
f 175/5/3 171/5/3 170/5/3
f 175/6/3 170/6/3 174/6/3
f 176/5/3 171/5/3 175/5/3
f 177/9/3 173/9/3 172/9/3
f 178/8/3 174/8/3 173/8/3
f 178/9/3 173/9/3 177/9/3
f 179/9/3 175/9/3 174/9/3
f 179/8/3 174/8/3 178/8/3
f 179/9/3 176/9/3 175/9/3
f 180/9/3 176/9/3 179/9/3
f 181/6/3 178/6/3 177/6/3
f 181/6/3 179/6/3 178/6/3
f 181/6/3 180/6/3 179/6/3
f 182/6/3 180/6/3 181/6/3
f 183/6/3 181/6/3 177/6/3
f 184/6/3 181/6/3 183/6/3
f 185/7/3 182/7/3 181/7/3
f 185/6/3 181/6/3 184/6/3
f 186/6/3 180/6/3 182/6/3
f 186/7/3 182/7/3 185/7/3
f 187/6/3 180/6/3 186/6/3
f 188/9/3 184/9/3 183/9/3
f 189/10/3 185/10/3 184/10/3
f 189/9/3 184/9/3 188/9/3
f 189/10/3 186/10/3 185/10/3
f 190/9/3 187/9/3 186/9/3
f 190/10/3 186/10/3 189/10/3
f 191/9/3 187/9/3 190/9/3
f 192/10/4 193/10/4 197/10/4
f 193/9/4 194/9/4 198/9/4
f 197/10/4 193/10/4 198/10/4
f 194/10/4 195/10/4 199/10/4
f 198/9/4 194/9/4 199/9/4
f 199/10/4 195/10/4 200/10/4
f 200/10/4 195/10/4 201/10/4
f 195/5/4 196/5/4 202/5/4
f 201/10/4 195/10/4 202/10/4
f 202/5/4 196/5/4 203/5/4
f 200/8/4 201/8/4 204/8/4
f 197/6/4 198/6/4 204/6/4
f 198/6/4 199/6/4 204/6/4
f 199/6/4 200/6/4 204/6/4
f 202/6/4 203/6/4 205/6/4
f 204/8/4 201/8/4 205/8/4
f 201/6/4 202/6/4 205/6/4
f 197/6/4 204/6/4 206/6/4
f 204/6/4 205/6/4 206/6/4
f 205/6/4 203/6/4 207/6/4
f 206/6/4 205/6/4 207/6/4
f 206/10/4 207/10/4 208/10/4
f 208/10/4 207/10/4 209/10/4
f 209/10/4 207/10/4 210/10/4
f 210/10/4 207/10/4 211/10/4
f 211/10/4 207/10/4 212/10/4
f 212/10/4 207/10/4 213/10/4
f 208/6/4 209/6/4 214/6/4
f 209/8/4 210/8/4 214/8/4
f 210/9/4 211/9/4 215/9/4
f 214/8/4 210/8/4 215/8/4
f 211/5/4 212/5/4 216/5/4
f 215/9/4 211/9/4 216/9/4
f 212/6/4 213/6/4 217/6/4
f 216/5/4 212/5/4 217/5/4
f 217/6/4 213/6/4 218/6/4
f 215/6/4 216/6/4 219/6/4
f 208/6/4 214/6/4 219/6/4
f 214/6/4 215/6/4 219/6/4
f 216/6/4 217/6/4 219/6/4
f 219/6/4 217/6/4 220/6/4
f 220/6/4 217/6/4 221/6/4
f 217/8/4 218/8/4 222/8/4
f 221/6/4 217/6/4 222/6/4
f 218/6/4 213/6/4 223/6/4
f 222/8/4 218/8/4 223/8/4
f 223/6/4 213/6/4 224/6/4
f 219/10/4 220/10/4 225/10/4
f 220/9/4 221/9/4 226/9/4
f 225/10/4 220/10/4 226/10/4
f 221/10/4 222/10/4 227/10/4
f 226/9/4 221/9/4 227/9/4
f 222/10/4 223/10/4 227/10/4
f 223/10/4 224/10/4 227/10/4
f 227/10/4 224/10/4 228/10/4
f 228/10/4 224/10/4 229/10/4
f 229/10/4 224/10/4 230/10/4
f 225/6/4 226/6/4 231/6/4
f 226/7/4 227/7/4 231/7/4
f 227/6/4 228/6/4 232/6/4
f 231/7/4 227/7/4 232/7/4
f 228/5/4 229/5/4 233/5/4
f 232/6/4 228/6/4 233/6/4
f 229/6/4 230/6/4 234/6/4
f 233/5/4 229/5/4 234/5/4
f 232/6/4 233/6/4 235/6/4
f 225/6/4 231/6/4 235/6/4
f 233/6/4 234/6/4 235/6/4
f 231/6/4 232/6/4 235/6/4
f 235/6/4 234/6/4 236/6/4
f 236/6/4 234/6/4 237/6/4
f 237/6/4 234/6/4 238/6/4
f 238/6/4 234/6/4 239/6/4
f 234/6/4 230/6/4 240/6/4
f 239/6/4 234/6/4 240/6/4
f 240/6/4 230/6/4 241/6/4
f 235/10/4 236/10/4 242/10/4
f 236/9/4 237/9/4 243/9/4
f 242/10/4 236/10/4 243/10/4
f 237/10/4 238/10/4 244/10/4
f 243/9/4 237/9/4 244/9/4
f 238/8/4 239/8/4 245/8/4
f 244/10/4 238/10/4 245/10/4
f 239/10/4 240/10/4 246/10/4
f 245/8/4 239/8/4 246/8/4
f 240/9/4 241/9/4 247/9/4
f 246/10/4 240/10/4 247/10/4
f 247/9/4 241/9/4 248/9/4
f 249/3/4 250/3/4 251/3/4
f 251/3/4 250/3/4 252/3/4
f 251/4/4 252/4/4 253/4/4
f 252/3/4 250/3/4 254/3/4
f 253/4/4 252/4/4 254/4/4
f 254/3/4 250/3/4 255/3/4
f 253/3/4 254/3/4 256/3/4
f 254/2/4 255/2/4 256/2/4
f 256/2/4 255/2/4 257/2/4
f 253/3/4 256/3/4 258/3/4
f 256/3/4 257/3/4 258/3/4
f 258/3/4 257/3/4 259/3/4
f 253/3/4 258/3/4 260/3/4
f 258/4/4 259/4/4 260/4/4
f 260/4/4 259/4/4 261/4/4
f 253/3/4 260/3/4 262/3/4
f 260/3/4 261/3/4 262/3/4
f 262/3/4 261/3/4 263/3/4
f 272/9/5 265/9/5 264/9/5
f 273/6/5 266/6/5 265/6/5
f 273/9/5 265/9/5 272/9/5
f 274/9/5 267/9/5 266/9/5
f 274/6/5 266/6/5 273/6/5
f 275/6/5 268/6/5 267/6/5
f 275/9/5 267/9/5 274/9/5
f 276/9/5 269/9/5 268/9/5
f 276/6/5 268/6/5 275/6/5
f 277/6/5 270/6/5 269/6/5
f 277/9/5 269/9/5 276/9/5
f 278/9/5 271/9/5 270/9/5
f 278/6/5 270/6/5 277/6/5
f 279/9/5 271/9/5 278/9/5
f 280/6/5 277/6/5 276/6/5
f 280/6/5 273/6/5 272/6/5
f 280/6/5 279/6/5 278/6/5
f 280/6/5 278/6/5 277/6/5
f 280/6/5 276/6/5 275/6/5
f 280/6/5 275/6/5 274/6/5
f 280/6/5 274/6/5 273/6/5
f 281/6/5 279/6/5 280/6/5
f 282/6/5 279/6/5 281/6/5
f 283/6/5 279/6/5 282/6/5
f 284/10/5 281/10/5 280/10/5
f 285/6/5 282/6/5 281/6/5
f 285/10/5 281/10/5 284/10/5
f 286/9/5 283/9/5 282/9/5
f 286/6/5 282/6/5 285/6/5
f 287/9/5 283/9/5 286/9/5
f 288/6/5 285/6/5 284/6/5
f 288/6/5 286/6/5 285/6/5
f 288/6/5 287/6/5 286/6/5
f 289/6/5 287/6/5 288/6/5
f 290/6/5 287/6/5 289/6/5
f 291/6/5 287/6/5 290/6/5
f 292/10/5 289/10/5 288/10/5
f 293/6/5 290/6/5 289/6/5
f 293/10/5 289/10/5 292/10/5
f 294/10/5 291/10/5 290/10/5
f 294/6/5 290/6/5 293/6/5
f 295/10/5 291/10/5 294/10/5
f 296/6/5 293/6/5 292/6/5
f 296/6/5 294/6/5 293/6/5
f 296/6/5 295/6/5 294/6/5
f 297/6/5 295/6/5 296/6/5
f 298/6/5 295/6/5 297/6/5
f 299/6/5 295/6/5 298/6/5
f 300/6/5 295/6/5 299/6/5
f 301/6/5 295/6/5 300/6/5
f 302/6/5 295/6/5 301/6/5
f 303/6/5 295/6/5 302/6/5
f 304/10/5 297/10/5 296/10/5
f 305/6/5 298/6/5 297/6/5
f 305/10/5 297/10/5 304/10/5
f 306/10/5 299/10/5 298/10/5
f 306/6/5 298/6/5 305/6/5
f 307/6/5 300/6/5 299/6/5
f 307/10/5 299/10/5 306/10/5
f 308/10/5 301/10/5 300/10/5
f 308/6/5 300/6/5 307/6/5
f 309/6/5 302/6/5 301/6/5
f 309/10/5 301/10/5 308/10/5
f 310/10/5 303/10/5 302/10/5
f 310/6/5 302/6/5 309/6/5
f 311/10/5 303/10/5 310/10/5
f 316/3/5 313/3/5 312/3/5
f 317/3/5 313/3/5 316/3/5
f 318/3/5 313/3/5 317/3/5
f 319/3/5 313/3/5 318/3/5
f 320/2/5 314/2/5 313/2/5
f 320/3/5 313/3/5 319/3/5
f 321/2/5 314/2/5 320/2/5
f 322/3/5 315/3/5 314/3/5
f 322/2/5 314/2/5 321/2/5
f 323/3/5 315/3/5 322/3/5
f 324/3/5 315/3/5 323/3/5
f 325/3/5 316/3/5 312/3/5
f 326/3/5 315/3/5 324/3/5
f 327/3/5 325/3/5 312/3/5
f 328/3/5 327/3/5 312/3/5
f 329/3/5 315/3/5 326/3/5
f 330/3/5 328/3/5 312/3/5
f 331/3/5 328/3/5 330/3/5
f 332/3/5 315/3/5 329/3/5
f 333/3/5 315/3/5 332/3/5
f 334/3/5 315/3/5 333/3/5
f 335/2/5 331/2/5 330/2/5
f 336/2/5 331/2/5 335/2/5
f 337/2/5 334/2/5 333/2/5
f 338/2/5 334/2/5 337/2/5
f 339/3/5 336/3/5 335/3/5
f 340/3/5 338/3/5 337/3/5
f 341/3/5 339/3/5 335/3/5
f 342/3/5 339/3/5 341/3/5
f 343/2/5 342/2/5 341/2/5
f 344/2/5 342/2/5 343/2/5
f 345/3/5 338/3/5 340/3/5
f 346/3/5 344/3/5 343/3/5
f 353/3/5 338/3/5 345/3/5
f 354/3/5 346/3/5 343/3/5
f 354/3/5 347/3/5 346/3/5
f 354/3/5 348/3/5 347/3/5
f 355/4/5 349/4/5 348/4/5
f 355/3/5 348/3/5 354/3/5
f 356/3/5 352/3/5 351/3/5
f 356/4/5 349/4/5 355/4/5
f 356/3/5 353/3/5 352/3/5
f 356/3/5 351/3/5 350/3/5
f 356/3/5 350/3/5 349/3/5
f 357/3/5 338/3/5 353/3/5
f 357/3/5 353/3/5 356/3/5
f 358/3/6 359/3/6 362/3/6
f 362/3/6 359/3/6 363/3/6
f 359/4/6 360/4/6 364/4/6
f 363/3/6 359/3/6 364/3/6
f 360/3/6 361/3/6 365/3/6
f 364/4/6 360/4/6 365/4/6
f 362/2/6 363/2/6 366/2/6
f 363/3/6 364/3/6 367/3/6
f 366/2/6 363/2/6 367/2/6
f 364/3/6 365/3/6 367/3/6
f 365/3/6 361/3/6 368/3/6
f 367/3/6 365/3/6 368/3/6
f 368/3/6 361/3/6 369/3/6
f 369/3/6 361/3/6 370/3/6
f 370/3/6 361/3/6 371/3/6
f 366/3/6 367/3/6 372/3/6
f 367/3/6 368/3/6 372/3/6
f 372/3/6 368/3/6 373/3/6
f 368/2/6 369/2/6 374/2/6
f 373/3/6 368/3/6 374/3/6
f 369/3/6 370/3/6 375/3/6
f 374/2/6 369/2/6 375/2/6
f 373/3/6 374/3/6 376/3/6
f 374/3/6 375/3/6 376/3/6
f 376/3/6 375/3/6 377/3/6
f 370/4/6 371/4/6 378/4/6
f 377/3/6 375/3/6 378/3/6
f 375/3/6 370/3/6 378/3/6
f 378/4/6 371/4/6 379/4/6
f 372/2/6 373/2/6 380/2/6
f 366/3/6 372/3/6 380/3/6
f 373/3/6 376/3/6 381/3/6
f 380/2/6 373/2/6 381/2/6
f 376/4/6 377/4/6 382/4/6
f 381/3/6 376/3/6 382/3/6
f 378/3/6 379/3/6 383/3/6
f 382/4/6 377/4/6 383/4/6
f 377/3/6 378/3/6 383/3/6
f 383/3/6 379/3/6 384/3/6
f 384/3/6 379/3/6 385/3/6
f 380/3/6 381/3/6 386/3/6
f 381/3/6 382/3/6 386/3/6
f 384/2/6 385/2/6 386/2/6
f 383/3/6 384/3/6 386/3/6
f 382/3/6 383/3/6 386/3/6
f 385/3/6 379/3/6 387/3/6
f 386/2/6 385/2/6 387/2/6
f 380/3/6 386/3/6 388/3/6
f 386/3/6 387/3/6 388/3/6
f 388/3/6 387/3/6 389/3/6
f 380/3/6 388/3/6 390/3/6
f 388/2/6 389/2/6 390/2/6
f 390/2/6 389/2/6 391/2/6
f 389/3/6 387/3/6 392/3/6
f 391/2/6 389/2/6 392/2/6
f 392/3/6 387/3/6 393/3/6
f 366/3/6 380/3/6 394/3/6
f 390/3/6 391/3/6 394/3/6
f 380/3/6 390/3/6 394/3/6
f 394/3/6 391/3/6 395/3/6
f 392/2/6 393/2/6 396/2/6
f 395/3/6 391/3/6 396/3/6
f 391/2/6 392/2/6 396/2/6
f 393/3/6 387/3/6 397/3/6
f 396/2/6 393/2/6 397/2/6
f 394/4/6 395/4/6 398/4/6
f 395/3/6 396/3/6 399/3/6
f 398/4/6 395/4/6 399/4/6
f 396/3/6 397/3/6 399/3/6
f 399/3/6 397/3/6 400/3/6
f 397/3/6 387/3/6 401/3/6
f 400/3/6 397/3/6 401/3/6
f 401/3/6 387/3/6 402/3/6
f 387/3/6 379/3/6 403/3/6
f 402/3/6 387/3/6 403/3/6
f 399/3/6 400/3/6 404/3/6
f 398/3/6 399/3/6 404/3/6
f 400/2/6 401/2/6 405/2/6
f 404/3/6 400/3/6 405/3/6
f 401/3/6 402/3/6 406/3/6
f 405/2/6 401/2/6 406/2/6
f 402/4/6 403/4/6 407/4/6
f 406/3/6 402/3/6 407/3/6
f 403/3/6 379/3/6 408/3/6
f 407/4/6 403/4/6 408/4/6
f 408/3/6 379/3/6 409/3/6
