# MagicaVoxel @ Ephtracy

# material
mtllib wall_concrete.mtl
usemtl palette

# normals
vn -1 0 0
vn 1 0 0
vn 0 0 1
vn 0 0 -1
vn 0 -1 0
vn 0 1 0

# texcoords
vt 0.974609 0.5
vt 0.978516 0.5
vt 0.982422 0.5
vt 0.986328 0.5

# verts
v -20 0 2
v -20 0 1
v -20 0 -2
v -20 8 3
v -20 8 2
v -20 8 1
v -20 9 3
v -20 9 2
v -20 25 3
v -20 25 2
v -20 25 1
v -20 26 2
v -20 26 1
v -20 27 2
v -20 27 1
v -20 30 2
v -20 30 -2
v 19 9 3
v 19 9 2
v 19 16 2
v 19 17 2
v 19 24 3
v 19 24 2
v -19 9 3
v -19 9 2
v -19 16 2
v -19 17 2
v -19 24 3
v -19 24 2
v 20 0 2
v 20 0 -2
v 20 8 3
v 20 8 2
v 20 9 3
v 20 9 2
v 20 25 3
v 20 25 2
v 20 25 1
v 20 26 2
v 20 26 1
v 20 27 2
v 20 27 1
v 20 30 2
v 20 30 -2
v -20 8 3
v -20 9 3
v -20 25 3
v -19 9 3
v -19 24 3
v 19 9 3
v 19 24 3
v 20 8 3
v 20 9 3
v 20 25 3
v -20 0 2
v -20 8 2
v -20 25 2
v -20 26 2
v -20 27 2
v -20 30 2
v -19 0 2
v -19 8 2
v -19 9 2
v -19 16 2
v -19 17 2
v -19 24 2
v -18 4 2
v -18 6 2
v -17 1 2
v -17 2 2
v -17 4 2
v -17 6 2
v -17 20 2
v -17 21 2
v -17 29 2
v -17 30 2
v -16 1 2
v -16 2 2
v -16 11 2
v -16 12 2
v -16 20 2
v -16 21 2
v -15 0 2
v -15 8 2
v -15 11 2
v -15 12 2
v -15 29 2
v -15 30 2
v -14 0 2
v -14 2 2
v -14 3 2
v -14 8 2
v -14 9 2
v -14 16 2
v -14 17 2
v -14 24 2
v -13 2 2
v -13 3 2
v -13 9 2
v -13 16 2
v -13 17 2
v -13 24 2
v -12 4 2
v -12 6 2
v -11 4 2
v -11 6 2
v -10 0 2
v -10 8 2
v -10 13 2
v -10 14 2
v -10 28 2
v -10 29 2
v -9 0 2
v -9 8 2
v -9 13 2
v -9 14 2
v -8 1 2
v -8 2 2
v -8 4 2
v -8 5 2
v -8 9 2
v -8 16 2
v -8 17 2
v -8 24 2
v -7 1 2
v -7 2 2
v -7 4 2
v -7 5 2
v -7 9 2
v -7 16 2
v -7 17 2
v -7 24 2
v -7 28 2
v -7 29 2
v -5 0 2
v -5 8 2
v -5 19 2
v -5 20 2
v -5 22 2
v -5 23 2
v -4 0 2
v -4 8 2
v -4 19 2
v -4 20 2
v -4 22 2
v -4 23 2
v -3 2 2
v -3 3 2
v -2 2 2
v -2 3 2
v -1 5 2
v -1 6 2
v -1 9 2
v -1 16 2
v -1 17 2
v -1 24 2
v -1 28 2
v -1 29 2
v 0 0 2
v 0 5 2
v 0 6 2
v 0 8 2
v 1 0 2
v 1 8 2
v 1 9 2
v 1 16 2
v 1 17 2
v 1 24 2
v 1 28 2
v 1 29 2
v 2 5 2
v 2 6 2
v 3 3 2
v 3 5 2
v 3 6 2
v 4 3 2
v 4 5 2
v 4 11 2
v 4 12 2
v 5 0 2
v 5 8 2
v 5 11 2
v 5 12 2
v 6 0 2
v 6 8 2
v 7 2 2
v 7 3 2
v 7 9 2
v 7 16 2
v 7 17 2
v 7 24 2
v 8 2 2
v 8 3 2
v 8 5 2
v 8 6 2
v 8 9 2
v 8 16 2
v 8 17 2
v 8 24 2
v 9 5 2
v 9 6 2
v 10 0 2
v 10 8 2
v 10 12 2
v 10 13 2
v 11 0 2
v 11 8 2
v 12 4 2
v 12 5 2
v 12 12 2
v 12 13 2
v 13 4 2
v 13 5 2
v 13 6 2
v 13 9 2
v 13 16 2
v 13 17 2
v 13 24 2
v 13 27 2
v 13 28 2
v 14 5 2
v 14 6 2
v 14 9 2
v 14 16 2
v 14 17 2
v 14 24 2
v 14 27 2
v 14 28 2
v 15 0 2
v 15 8 2
v 15 18 2
v 15 19 2
v 16 0 2
v 16 8 2
v 16 18 2
v 16 19 2
v 17 6 2
v 17 7 2
v 17 12 2
v 17 13 2
v 17 21 2
v 17 22 2
v 17 29 2
v 17 30 2
v 18 1 2
v 18 2 2
v 18 4 2
v 18 5 2
v 18 6 2
v 18 7 2
v 18 12 2
v 18 13 2
v 18 21 2
v 18 22 2
v 18 29 2
v 18 30 2
v 19 1 2
v 19 2 2
v 19 4 2
v 19 5 2
v 19 9 2
v 19 16 2
v 19 17 2
v 19 24 2
v 20 0 2
v 20 8 2
v 20 25 2
v 20 26 2
v 20 27 2
v 20 30 2
v -20 0 -2
v -20 30 -2
v 20 0 -2
v 20 30 -2
v -20 0 2
v -19 0 2
v -15 0 2
v -14 0 2
v -10 0 2
v -9 0 2
v -5 0 2
v -4 0 2
v 0 0 2
v 1 0 2
v 5 0 2
v 6 0 2
v 10 0 2
v 11 0 2
v 15 0 2
v 16 0 2
v 20 0 2
v -20 0 1
v -19 0 1
v -15 0 1
v -14 0 1
v -10 0 1
v -9 0 1
v -5 0 1
v -4 0 1
v 0 0 1
v 1 0 1
v 5 0 1
v 6 0 1
v 10 0 1
v 11 0 1
v 15 0 1
v 16 0 1
v -20 0 -2
v 20 0 -2
v -20 8 3
v 20 8 3
v -20 8 2
v -19 8 2
v -15 8 2
v -14 8 2
v -10 8 2
v -9 8 2
v -5 8 2
v -4 8 2
v 0 8 2
v 1 8 2
v 5 8 2
v 6 8 2
v 10 8 2
v 11 8 2
v 15 8 2
v 16 8 2
v 20 8 2
v -19 24 3
v 19 24 3
v -19 24 2
v -14 24 2
v -13 24 2
v -8 24 2
v -7 24 2
v -1 24 2
v 1 24 2
v 7 24 2
v 8 24 2
v 13 24 2
v 14 24 2
v 19 24 2
v -19 9 3
v 19 9 3
v -19 9 2
v -14 9 2
v -13 9 2
v -8 9 2
v -7 9 2
v -1 9 2
v 1 9 2
v 7 9 2
v 8 9 2
v 13 9 2
v 14 9 2
v 19 9 2
v -20 25 3
v 20 25 3
v -20 25 2
v 20 25 2
v -20 30 2
v -17 30 2
v -15 30 2
v 17 30 2
v 18 30 2
v 20 30 2
v -17 30 1
v -15 30 1
v 17 30 1
v 18 30 1
v -20 30 -2
v 20 30 -2

# faces
f 5/4/1 2/4/1 1/4/1
f 6/2/1 3/2/1 2/2/1
f 6/4/1 2/4/1 5/4/1
f 7/4/1 5/4/1 4/4/1
f 8/2/1 6/2/1 5/2/1
f 8/4/1 5/4/1 7/4/1
f 9/2/1 8/2/1 7/2/1
f 10/2/1 6/2/1 8/2/1
f 10/2/1 8/2/1 9/2/1
f 11/2/1 3/2/1 6/2/1
f 11/2/1 6/2/1 10/2/1
f 12/4/1 11/4/1 10/4/1
f 13/2/1 3/2/1 11/2/1
f 13/4/1 11/4/1 12/4/1
f 14/3/1 13/3/1 12/3/1
f 15/2/1 3/2/1 13/2/1
f 15/3/1 13/3/1 14/3/1
f 16/2/1 15/2/1 14/2/1
f 17/2/1 3/2/1 15/2/1
f 17/2/1 15/2/1 16/2/1
f 20/2/1 19/2/1 18/2/1
f 21/2/1 20/2/1 18/2/1
f 22/2/1 21/2/1 18/2/1
f 23/2/1 21/2/1 22/2/1
f 24/2/2 25/2/2 26/2/2
f 24/2/2 26/2/2 27/2/2
f 24/2/2 27/2/2 28/2/2
f 28/2/2 27/2/2 29/2/2
f 30/2/2 31/2/2 33/2/2
f 32/4/2 33/4/2 34/4/2
f 33/2/2 31/2/2 35/2/2
f 34/4/2 33/4/2 35/4/2
f 34/2/2 35/2/2 36/2/2
f 35/2/2 31/2/2 37/2/2
f 36/2/2 35/2/2 37/2/2
f 37/2/2 31/2/2 38/2/2
f 37/4/2 38/4/2 39/4/2
f 38/2/2 31/2/2 40/2/2
f 39/4/2 38/4/2 40/4/2
f 39/3/2 40/3/2 41/3/2
f 40/2/2 31/2/2 42/2/2
f 41/3/2 40/3/2 42/3/2
f 41/2/2 42/2/2 43/2/2
f 42/2/2 31/2/2 44/2/2
f 43/2/2 42/2/2 44/2/2
f 48/4/3 46/4/3 45/4/3
f 48/2/3 47/2/3 46/2/3
f 49/2/3 47/2/3 48/2/3
f 50/4/3 48/4/3 45/4/3
f 51/2/3 47/2/3 49/2/3
f 52/4/3 50/4/3 45/4/3
f 53/2/3 51/2/3 50/2/3
f 53/4/3 50/4/3 52/4/3
f 54/2/3 47/2/3 51/2/3
f 54/2/3 51/2/3 53/2/3
f 61/4/3 56/4/3 55/4/3
f 62/4/3 56/4/3 61/4/3
f 67/2/3 62/2/3 61/2/3
f 68/2/3 62/2/3 67/2/3
f 69/2/3 67/2/3 61/2/3
f 70/2/3 67/2/3 69/2/3
f 71/1/3 68/1/3 67/1/3
f 71/2/3 67/2/3 70/2/3
f 72/2/3 62/2/3 68/2/3
f 72/1/3 68/1/3 71/1/3
f 73/1/3 66/1/3 65/1/3
f 74/1/3 66/1/3 73/1/3
f 75/2/3 60/2/3 59/2/3
f 76/2/3 60/2/3 75/2/3
f 77/3/3 70/3/3 69/3/3
f 77/2/3 69/2/3 61/2/3
f 78/2/3 71/2/3 70/2/3
f 78/3/3 70/3/3 77/3/3
f 78/2/3 72/2/3 71/2/3
f 79/1/3 64/1/3 63/1/3
f 80/1/3 64/1/3 79/1/3
f 81/1/3 73/1/3 65/1/3
f 81/2/3 74/2/3 73/2/3
f 82/1/3 66/1/3 74/1/3
f 82/2/3 74/2/3 81/2/3
f 83/2/3 77/2/3 61/2/3
f 83/2/3 78/2/3 77/2/3
f 84/2/3 62/2/3 72/2/3
f 84/2/3 78/2/3 83/2/3
f 84/2/3 72/2/3 78/2/3
f 85/1/3 79/1/3 63/1/3
f 85/2/3 80/2/3 79/2/3
f 86/1/3 64/1/3 80/1/3
f 86/2/3 80/2/3 85/2/3
f 87/3/3 76/3/3 75/3/3
f 87/2/3 75/2/3 59/2/3
f 88/3/3 76/3/3 87/3/3
f 89/4/3 84/4/3 83/4/3
f 90/4/3 84/4/3 89/4/3
f 91/4/3 84/4/3 90/4/3
f 92/4/3 84/4/3 91/4/3
f 93/1/3 86/1/3 85/1/3
f 93/1/3 85/1/3 63/1/3
f 94/3/3 65/3/3 64/3/3
f 94/1/3 86/1/3 93/1/3
f 94/1/3 64/1/3 86/1/3
f 95/1/3 81/1/3 65/1/3
f 95/3/3 65/3/3 94/3/3
f 95/1/3 82/1/3 81/1/3
f 96/1/3 66/1/3 82/1/3
f 96/1/3 82/1/3 95/1/3
f 97/2/3 90/2/3 89/2/3
f 97/3/3 91/3/3 90/3/3
f 98/2/3 92/2/3 91/2/3
f 98/3/3 91/3/3 97/3/3
f 99/3/3 94/3/3 93/3/3
f 99/3/3 95/3/3 94/3/3
f 99/3/3 96/3/3 95/3/3
f 100/3/3 96/3/3 99/3/3
f 101/3/3 96/3/3 100/3/3
f 102/3/3 96/3/3 101/3/3
f 103/2/3 92/2/3 98/2/3
f 103/2/3 98/2/3 97/2/3
f 104/2/3 92/2/3 103/2/3
f 105/2/3 103/2/3 97/2/3
f 105/1/3 104/1/3 103/1/3
f 106/2/3 92/2/3 104/2/3
f 106/1/3 104/1/3 105/1/3
f 107/2/3 97/2/3 89/2/3
f 107/2/3 105/2/3 97/2/3
f 107/2/3 106/2/3 105/2/3
f 108/2/3 92/2/3 106/2/3
f 108/2/3 106/2/3 107/2/3
f 109/1/3 100/1/3 99/1/3
f 110/1/3 100/1/3 109/1/3
f 111/2/3 88/2/3 87/2/3
f 111/2/3 87/2/3 59/2/3
f 112/2/3 88/2/3 111/2/3
f 113/4/3 108/4/3 107/4/3
f 114/4/3 108/4/3 113/4/3
f 115/2/3 110/2/3 109/2/3
f 115/1/3 109/1/3 99/1/3
f 116/1/3 100/1/3 110/1/3
f 116/2/3 110/2/3 115/2/3
f 117/2/3 114/2/3 113/2/3
f 118/2/3 114/2/3 117/2/3
f 119/2/3 114/2/3 118/2/3
f 120/2/3 114/2/3 119/2/3
f 121/1/3 115/1/3 99/1/3
f 121/1/3 116/1/3 115/1/3
f 122/1/3 100/1/3 116/1/3
f 122/1/3 116/1/3 121/1/3
f 122/3/3 101/3/3 100/3/3
f 123/1/3 102/1/3 101/1/3
f 123/3/3 101/3/3 122/3/3
f 124/1/3 102/1/3 123/1/3
f 125/2/3 117/2/3 113/2/3
f 125/1/3 118/1/3 117/1/3
f 126/2/3 119/2/3 118/2/3
f 126/1/3 118/1/3 125/1/3
f 127/3/3 120/3/3 119/3/3
f 127/2/3 119/2/3 126/2/3
f 128/2/3 114/2/3 120/2/3
f 128/3/3 120/3/3 127/3/3
f 129/3/3 122/3/3 121/3/3
f 129/3/3 124/3/3 123/3/3
f 129/3/3 123/3/3 122/3/3
f 130/3/3 124/3/3 129/3/3
f 131/3/3 124/3/3 130/3/3
f 132/3/3 124/3/3 131/3/3
f 133/2/3 111/2/3 59/2/3
f 133/3/3 112/3/3 111/3/3
f 134/2/3 88/2/3 112/2/3
f 134/3/3 112/3/3 133/3/3
f 135/2/3 127/2/3 126/2/3
f 135/2/3 125/2/3 113/2/3
f 135/2/3 126/2/3 125/2/3
f 135/2/3 128/2/3 127/2/3
f 136/2/3 114/2/3 128/2/3
f 136/2/3 128/2/3 135/2/3
f 137/1/3 132/1/3 131/1/3
f 138/1/3 132/1/3 137/1/3
f 139/1/3 132/1/3 138/1/3
f 140/1/3 132/1/3 139/1/3
f 141/4/3 136/4/3 135/4/3
f 142/4/3 136/4/3 141/4/3
f 143/1/3 137/1/3 131/1/3
f 143/2/3 138/2/3 137/2/3
f 144/1/3 139/1/3 138/1/3
f 144/2/3 138/2/3 143/2/3
f 145/3/3 140/3/3 139/3/3
f 145/1/3 139/1/3 144/1/3
f 146/1/3 132/1/3 140/1/3
f 146/3/3 140/3/3 145/3/3
f 147/2/3 142/2/3 141/2/3
f 148/2/3 142/2/3 147/2/3
f 149/2/3 147/2/3 141/2/3
f 149/1/3 148/1/3 147/1/3
f 150/2/3 142/2/3 148/2/3
f 150/1/3 148/1/3 149/1/3
f 151/2/3 150/2/3 149/2/3
f 151/2/3 142/2/3 150/2/3
f 152/2/3 142/2/3 151/2/3
f 153/1/3 130/1/3 129/1/3
f 154/3/3 131/3/3 130/3/3
f 154/1/3 130/1/3 153/1/3
f 155/1/3 145/1/3 144/1/3
f 155/3/3 131/3/3 154/3/3
f 155/1/3 143/1/3 131/1/3
f 155/1/3 144/1/3 143/1/3
f 155/1/3 146/1/3 145/1/3
f 156/1/3 132/1/3 146/1/3
f 156/1/3 146/1/3 155/1/3
f 157/2/3 134/2/3 133/2/3
f 157/2/3 133/2/3 59/2/3
f 158/2/3 88/2/3 134/2/3
f 158/2/3 134/2/3 157/2/3
f 159/2/3 149/2/3 141/2/3
f 159/2/3 151/2/3 149/2/3
f 160/1/3 152/1/3 151/1/3
f 160/2/3 151/2/3 159/2/3
f 161/2/3 142/2/3 152/2/3
f 161/1/3 152/1/3 160/1/3
f 162/2/3 142/2/3 161/2/3
f 163/4/3 160/4/3 159/4/3
f 163/4/3 161/4/3 160/4/3
f 163/4/3 162/4/3 161/4/3
f 164/4/3 162/4/3 163/4/3
f 165/4/3 156/4/3 155/4/3
f 165/4/3 154/4/3 153/4/3
f 165/4/3 155/4/3 154/4/3
f 166/4/3 156/4/3 165/4/3
f 167/4/3 156/4/3 166/4/3
f 168/4/3 156/4/3 167/4/3
f 169/2/3 157/2/3 59/2/3
f 169/3/3 158/3/3 157/3/3
f 170/2/3 88/2/3 158/2/3
f 170/3/3 158/3/3 169/3/3
f 171/2/3 164/2/3 163/2/3
f 172/2/3 164/2/3 171/2/3
f 173/2/3 171/2/3 163/2/3
f 174/1/3 172/1/3 171/1/3
f 174/2/3 171/2/3 173/2/3
f 175/2/3 164/2/3 172/2/3
f 175/1/3 172/1/3 174/1/3
f 176/3/3 174/3/3 173/3/3
f 176/2/3 173/2/3 163/2/3
f 177/2/3 175/2/3 174/2/3
f 177/3/3 174/3/3 176/3/3
f 178/1/3 166/1/3 165/1/3
f 179/1/3 166/1/3 178/1/3
f 180/2/3 176/2/3 163/2/3
f 180/2/3 177/2/3 176/2/3
f 181/2/3 175/2/3 177/2/3
f 181/2/3 177/2/3 180/2/3
f 181/2/3 164/2/3 175/2/3
f 182/1/3 178/1/3 165/1/3
f 182/2/3 179/2/3 178/2/3
f 183/1/3 166/1/3 179/1/3
f 183/2/3 179/2/3 182/2/3
f 184/4/3 181/4/3 180/4/3
f 185/4/3 181/4/3 184/4/3
f 186/2/3 185/2/3 184/2/3
f 187/2/3 185/2/3 186/2/3
f 188/1/3 182/1/3 165/1/3
f 188/1/3 183/1/3 182/1/3
f 189/3/3 167/3/3 166/3/3
f 189/1/3 183/1/3 188/1/3
f 189/1/3 166/1/3 183/1/3
f 190/1/3 168/1/3 167/1/3
f 190/3/3 167/3/3 189/3/3
f 191/1/3 168/1/3 190/1/3
f 192/2/3 186/2/3 184/2/3
f 192/1/3 187/1/3 186/1/3
f 193/2/3 185/2/3 187/2/3
f 193/1/3 187/1/3 192/1/3
f 194/2/3 185/2/3 193/2/3
f 195/2/3 185/2/3 194/2/3
f 196/3/3 189/3/3 188/3/3
f 196/3/3 191/3/3 190/3/3
f 196/3/3 190/3/3 189/3/3
f 197/3/3 191/3/3 196/3/3
f 198/3/3 191/3/3 197/3/3
f 199/3/3 191/3/3 198/3/3
f 200/3/3 195/3/3 194/3/3
f 200/2/3 194/2/3 193/2/3
f 200/2/3 193/2/3 192/2/3
f 201/2/3 185/2/3 195/2/3
f 201/3/3 195/3/3 200/3/3
f 202/2/3 200/2/3 192/2/3
f 202/2/3 192/2/3 184/2/3
f 202/2/3 201/2/3 200/2/3
f 203/2/3 185/2/3 201/2/3
f 203/2/3 201/2/3 202/2/3
f 204/1/3 197/1/3 196/1/3
f 205/1/3 197/1/3 204/1/3
f 206/4/3 203/4/3 202/4/3
f 207/4/3 203/4/3 206/4/3
f 208/2/3 207/2/3 206/2/3
f 209/2/3 207/2/3 208/2/3
f 210/1/3 204/1/3 196/1/3
f 210/2/3 205/2/3 204/2/3
f 211/1/3 197/1/3 205/1/3
f 211/2/3 205/2/3 210/2/3
f 212/1/3 209/1/3 208/1/3
f 212/2/3 208/2/3 206/2/3
f 213/2/3 207/2/3 209/2/3
f 213/1/3 209/1/3 212/1/3
f 214/2/3 207/2/3 213/2/3
f 215/1/3 210/1/3 196/1/3
f 215/1/3 211/1/3 210/1/3
f 216/3/3 198/3/3 197/3/3
f 216/1/3 211/1/3 215/1/3
f 216/1/3 197/1/3 211/1/3
f 217/1/3 199/1/3 198/1/3
f 217/3/3 198/3/3 216/3/3
f 218/1/3 199/1/3 217/1/3
f 219/3/3 59/3/3 58/3/3
f 219/2/3 169/2/3 59/2/3
f 219/2/3 170/2/3 169/2/3
f 220/2/3 170/2/3 219/2/3
f 221/3/3 214/3/3 213/3/3
f 221/2/3 213/2/3 212/2/3
f 222/2/3 207/2/3 214/2/3
f 222/3/3 214/3/3 221/3/3
f 223/3/3 218/3/3 217/3/3
f 223/3/3 217/3/3 216/3/3
f 223/3/3 216/3/3 215/3/3
f 224/3/3 218/3/3 223/3/3
f 225/3/3 218/3/3 224/3/3
f 226/3/3 218/3/3 225/3/3
f 227/3/3 220/3/3 219/3/3
f 227/3/3 219/3/3 58/3/3
f 228/2/3 170/2/3 220/2/3
f 228/3/3 220/3/3 227/3/3
f 229/2/3 222/2/3 221/2/3
f 229/2/3 221/2/3 212/2/3
f 229/2/3 212/2/3 206/2/3
f 230/2/3 207/2/3 222/2/3
f 230/2/3 222/2/3 229/2/3
f 231/1/3 226/1/3 225/1/3
f 232/1/3 226/1/3 231/1/3
f 233/4/3 230/4/3 229/4/3
f 234/4/3 230/4/3 233/4/3
f 235/1/3 231/1/3 225/1/3
f 235/3/3 232/3/3 231/3/3
f 236/1/3 226/1/3 232/1/3
f 236/3/3 232/3/3 235/3/3
f 237/2/3 234/2/3 233/2/3
f 238/2/3 234/2/3 237/2/3
f 239/1/3 224/1/3 223/1/3
f 240/1/3 224/1/3 239/1/3
f 241/1/3 226/1/3 236/1/3
f 241/1/3 236/1/3 235/1/3
f 242/1/3 226/1/3 241/1/3
f 243/2/3 88/2/3 170/2/3
f 243/2/3 170/2/3 228/2/3
f 243/2/3 228/2/3 227/2/3
f 244/2/3 88/2/3 243/2/3
f 245/2/3 237/2/3 233/2/3
f 246/2/3 237/2/3 245/2/3
f 247/2/3 237/2/3 246/2/3
f 248/2/3 237/2/3 247/2/3
f 249/1/3 238/1/3 237/1/3
f 249/2/3 237/2/3 248/2/3
f 250/2/3 234/2/3 238/2/3
f 250/1/3 238/1/3 249/1/3
f 251/2/3 240/2/3 239/2/3
f 251/1/3 239/1/3 223/1/3
f 252/1/3 224/1/3 240/1/3
f 252/2/3 240/2/3 251/2/3
f 253/2/3 242/2/3 241/2/3
f 253/1/3 241/1/3 235/1/3
f 254/1/3 226/1/3 242/1/3
f 254/2/3 242/2/3 253/2/3
f 255/2/3 243/2/3 227/2/3
f 255/3/3 244/3/3 243/3/3
f 256/3/3 244/3/3 255/3/3
f 257/2/3 245/2/3 233/2/3
f 257/1/3 246/1/3 245/1/3
f 258/2/3 247/2/3 246/2/3
f 258/1/3 246/1/3 257/1/3
f 259/3/3 248/3/3 247/3/3
f 259/2/3 247/2/3 258/2/3
f 260/2/3 249/2/3 248/2/3
f 260/3/3 248/3/3 259/3/3
f 260/2/3 250/2/3 249/2/3
f 261/1/3 252/1/3 251/1/3
f 261/1/3 251/1/3 223/1/3
f 262/1/3 224/1/3 252/1/3
f 262/1/3 252/1/3 261/1/3
f 262/3/3 225/3/3 224/3/3
f 263/1/3 253/1/3 235/1/3
f 263/3/3 225/3/3 262/3/3
f 263/1/3 235/1/3 225/1/3
f 263/1/3 254/1/3 253/1/3
f 264/1/3 226/1/3 254/1/3
f 264/1/3 254/1/3 263/1/3
f 265/2/3 257/2/3 233/2/3
f 265/2/3 259/2/3 258/2/3
f 265/2/3 260/2/3 259/2/3
f 265/2/3 258/2/3 257/2/3
f 266/2/3 250/2/3 260/2/3
f 266/2/3 260/2/3 265/2/3
f 266/2/3 234/2/3 250/2/3
f 267/4/3 58/4/3 57/4/3
f 268/3/3 227/3/3 58/3/3
f 268/4/3 58/4/3 267/4/3
f 269/2/3 256/2/3 255/2/3
f 269/3/3 227/3/3 268/3/3
f 269/2/3 255/2/3 227/2/3
f 270/2/3 256/2/3 269/2/3
f 271/2/4 272/2/4 273/2/4
f 273/2/4 272/2/4 274/2/4
f 292/4/5 276/4/5 275/4/5
f 293/2/5 277/2/5 276/2/5
f 293/4/5 276/4/5 292/4/5
f 294/4/5 278/4/5 277/4/5
f 294/2/5 277/2/5 293/2/5
f 295/2/5 279/2/5 278/2/5
f 295/4/5 278/4/5 294/4/5
f 296/4/5 280/4/5 279/4/5
f 296/2/5 279/2/5 295/2/5
f 297/2/5 281/2/5 280/2/5
f 297/4/5 280/4/5 296/4/5
f 298/4/5 282/4/5 281/4/5
f 298/2/5 281/2/5 297/2/5
f 299/2/5 283/2/5 282/2/5
f 299/4/5 282/4/5 298/4/5
f 300/4/5 284/4/5 283/4/5
f 300/2/5 283/2/5 299/2/5
f 301/2/5 285/2/5 284/2/5
f 301/4/5 284/4/5 300/4/5
f 302/4/5 286/4/5 285/4/5
f 302/2/5 285/2/5 301/2/5
f 303/2/5 287/2/5 286/2/5
f 303/4/5 286/4/5 302/4/5
f 304/4/5 288/4/5 287/4/5
f 304/2/5 287/2/5 303/2/5
f 305/2/5 289/2/5 288/2/5
f 305/4/5 288/4/5 304/4/5
f 306/4/5 290/4/5 289/4/5
f 306/2/5 289/2/5 305/2/5
f 307/2/5 291/2/5 290/2/5
f 307/4/5 290/4/5 306/4/5
f 308/2/5 306/2/5 305/2/5
f 308/2/5 293/2/5 292/2/5
f 308/2/5 307/2/5 306/2/5
f 308/2/5 305/2/5 304/2/5
f 308/2/5 304/2/5 303/2/5
f 308/2/5 303/2/5 302/2/5
f 308/2/5 302/2/5 301/2/5
f 308/2/5 301/2/5 300/2/5
f 308/2/5 300/2/5 299/2/5
f 308/2/5 299/2/5 298/2/5
f 308/2/5 298/2/5 297/2/5
f 308/2/5 297/2/5 296/2/5
f 308/2/5 296/2/5 295/2/5
f 308/2/5 295/2/5 294/2/5
f 308/2/5 294/2/5 293/2/5
f 309/2/5 291/2/5 307/2/5
f 309/2/5 307/2/5 308/2/5
f 312/4/5 311/4/5 310/4/5
f 313/4/5 311/4/5 312/4/5
f 314/4/5 311/4/5 313/4/5
f 315/4/5 311/4/5 314/4/5
f 316/4/5 311/4/5 315/4/5
f 317/4/5 311/4/5 316/4/5
f 318/4/5 311/4/5 317/4/5
f 319/4/5 311/4/5 318/4/5
f 320/4/5 311/4/5 319/4/5
f 321/4/5 311/4/5 320/4/5
f 322/4/5 311/4/5 321/4/5
f 323/4/5 311/4/5 322/4/5
f 324/4/5 311/4/5 323/4/5
f 325/4/5 311/4/5 324/4/5
f 326/4/5 311/4/5 325/4/5
f 327/4/5 311/4/5 326/4/5
f 328/4/5 311/4/5 327/4/5
f 331/2/5 330/2/5 329/2/5
f 332/2/5 330/2/5 331/2/5
f 333/2/5 330/2/5 332/2/5
f 334/2/5 330/2/5 333/2/5
f 335/2/5 330/2/5 334/2/5
f 336/2/5 330/2/5 335/2/5
f 337/2/5 330/2/5 336/2/5
f 338/2/5 330/2/5 337/2/5
f 339/2/5 330/2/5 338/2/5
f 340/2/5 330/2/5 339/2/5
f 341/2/5 330/2/5 340/2/5
f 342/2/5 330/2/5 341/2/5
f 343/4/6 344/4/6 345/4/6
f 345/4/6 344/4/6 346/4/6
f 346/4/6 344/4/6 347/4/6
f 347/4/6 344/4/6 348/4/6
f 348/4/6 344/4/6 349/4/6
f 349/4/6 344/4/6 350/4/6
f 350/4/6 344/4/6 351/4/6
f 351/4/6 344/4/6 352/4/6
f 352/4/6 344/4/6 353/4/6
f 353/4/6 344/4/6 354/4/6
f 354/4/6 344/4/6 355/4/6
f 355/4/6 344/4/6 356/4/6
f 357/2/6 358/2/6 359/2/6
f 359/2/6 358/2/6 360/2/6
f 361/2/6 362/2/6 367/2/6
f 362/3/6 363/3/6 367/3/6
f 363/2/6 364/2/6 368/2/6
f 367/3/6 363/3/6 368/3/6
f 364/3/6 365/3/6 369/3/6
f 368/2/6 364/2/6 369/2/6
f 365/2/6 366/2/6 370/2/6
f 369/3/6 365/3/6 370/3/6
f 368/2/6 369/2/6 371/2/6
f 367/2/6 368/2/6 371/2/6
f 369/2/6 370/2/6 371/2/6
f 361/2/6 367/2/6 371/2/6
f 370/2/6 366/2/6 372/2/6
f 371/2/6 370/2/6 372/2/6
